<svg width="30" height="30" viewBox="0 0 30 30" fill="none" xmlns="http://www.w3.org/2000/svg">
<rect x="0.46875" y="0.46875" width="29.0625" height="29.0625" rx="3.28125" stroke="#2E2E2E" stroke-width="0.9375"/>
<g clip-path="url(#clip0_196_21162)">
<path d="M15.4688 8.935C17.5979 8.935 17.85 8.94434 18.6874 8.98169C19.4656 9.01593 19.8858 9.14667 20.166 9.25562C20.5364 9.3988 20.8041 9.57312 21.0811 9.85016C21.3613 10.1303 21.5325 10.3949 21.6757 10.7653C21.7846 11.0455 21.9153 11.4688 21.9496 12.2439C21.9869 13.0844 21.9963 13.3365 21.9963 15.4625C21.9963 17.5917 21.9869 17.8438 21.9496 18.6812C21.9153 19.4594 21.7846 19.8796 21.6757 20.1597C21.5325 20.5302 21.3582 20.7979 21.0811 21.0749C20.801 21.355 20.5364 21.5262 20.166 21.6694C19.8858 21.7784 19.4625 21.9091 18.6874 21.9434C17.8469 21.9807 17.5948 21.9901 15.4688 21.9901C13.3396 21.9901 13.0875 21.9807 12.2501 21.9434C11.4719 21.9091 11.0517 21.7784 10.7715 21.6694C10.4011 21.5262 10.1334 21.3519 9.85638 21.0749C9.57623 20.7947 9.40503 20.5302 9.26184 20.1597C9.15289 19.8796 9.02216 19.4562 8.98792 18.6812C8.95056 17.8407 8.94122 17.5886 8.94122 15.4625C8.94122 13.3334 8.95056 13.0812 8.98792 12.2439C9.02216 11.4657 9.15289 11.0455 9.26184 10.7653C9.40503 10.3949 9.57935 10.1272 9.85638 9.85016C10.1365 9.57001 10.4011 9.3988 10.7715 9.25562C11.0517 9.14667 11.475 9.01593 12.2501 8.98169C13.0875 8.94434 13.3396 8.935 15.4688 8.935ZM15.4688 7.5C13.3054 7.5 13.0345 7.50934 12.1848 7.54669C11.3381 7.58405 10.756 7.72101 10.2517 7.91711C9.72565 8.12256 9.28052 8.39337 8.8385 8.8385C8.39337 9.28052 8.12256 9.72565 7.91711 10.2486C7.72101 10.756 7.58405 11.335 7.54669 12.1816C7.50934 13.0345 7.5 13.3054 7.5 15.4688C7.5 17.6321 7.50934 17.903 7.54669 18.7527C7.58405 19.5994 7.72101 20.1815 7.91711 20.6858C8.12256 21.2119 8.39337 21.657 8.8385 22.099C9.28052 22.541 9.72565 22.8149 10.2486 23.0173C10.756 23.2134 11.335 23.3503 12.1816 23.3877C13.0314 23.425 13.3022 23.4344 15.4656 23.4344C17.629 23.4344 17.8998 23.425 18.7496 23.3877C19.5963 23.3503 20.1784 23.2134 20.6827 23.0173C21.2056 22.8149 21.6508 22.541 22.0928 22.099C22.5348 21.657 22.8087 21.2119 23.011 20.6889C23.2072 20.1815 23.3441 19.6025 23.3815 18.7559C23.4188 17.9061 23.4282 17.6353 23.4282 15.4719C23.4282 13.3085 23.4188 13.0377 23.3815 12.1879C23.3441 11.3412 23.2072 10.7591 23.011 10.2548C22.8149 9.72565 22.5441 9.28052 22.099 8.8385C21.657 8.39648 21.2119 8.12256 20.6889 7.92023C20.1815 7.72412 19.6025 7.58716 18.7559 7.5498C17.903 7.50934 17.6321 7.5 15.4688 7.5Z" fill="#2E2E2E"/>
<path d="M15.4683 11.375C13.2084 11.375 11.375 13.2084 11.375 15.4683C11.375 17.7282 13.2084 19.5616 15.4683 19.5616C17.7282 19.5616 19.5616 17.7282 19.5616 15.4683C19.5616 13.2084 17.7282 11.375 15.4683 11.375ZM15.4683 18.1235C14.0022 18.1235 12.8131 16.9344 12.8131 15.4683C12.8131 14.0022 14.0022 12.8131 15.4683 12.8131C16.9344 12.8131 18.1235 14.0022 18.1235 15.4683C18.1235 16.9344 16.9344 18.1235 15.4683 18.1235Z" fill="#2E2E2E"/>
<path d="M20.6808 11.2134C20.6808 11.7426 20.2512 12.1691 19.7252 12.1691C19.196 12.1691 18.7695 11.7395 18.7695 11.2134C18.7695 10.6843 19.1991 10.2578 19.7252 10.2578C20.2512 10.2578 20.6808 10.6874 20.6808 11.2134Z" fill="#2E2E2E"/>
</g>
<defs>
<clipPath id="clip0_196_21162">
<rect width="15.9375" height="15.9375" fill="white" transform="translate(7.5 7.5)"/>
</clipPath>
</defs>
</svg>
