<svg xmlns="http://www.w3.org/2000/svg" width="1728" height="109" viewBox="0 0 1728 109" fill="none"><path d="M25.0074 52.7921L24.8695 52.782C18.3982 52.4174 12.3014 49.679 7.70216 45.0899C3.10289 40.4907 0.374686 34.3939 0.0101273 27.9226L0 27.7847L0.137889 27.7948C6.60921 28.1594 12.706 30.8977 17.3053 35.4868C21.9045 40.0861 24.6327 46.1829 24.9973 52.6542L25.0074 52.7921Z" fill="#F9F9F9"></path><path d="M27.7754 52.7921L27.7855 52.6542C28.1501 46.1829 30.8885 40.0861 35.4775 35.4868C40.0768 30.8876 46.1736 28.1594 52.6449 27.7948L52.7828 27.7847L52.7727 27.9226C52.4081 34.3939 49.6697 40.4907 45.0807 45.0899C40.4806 49.6892 34.3838 52.4174 27.9133 52.782L27.7754 52.7921Z" fill="#F9F9F9"></path><path d="M0 25.0172L0.0101273 24.8793C0.374706 18.408 3.11307 12.3112 7.70216 7.71192C12.3014 3.11266 18.3982 0.384452 24.8695 0.019893L25.0074 0.00976562L24.9973 0.147654C24.6327 6.61897 21.8944 12.7158 17.3053 17.315C12.706 21.9143 6.60921 24.6425 0.137889 25.0071L0 25.0172Z" fill="#F9F9F9"></path><path d="M52.7818 25.0178L52.644 25.0076C46.1726 24.6431 40.0759 21.9047 35.4766 17.3156C30.8765 12.7163 28.1483 6.61955 27.7838 0.138865L27.7744 0.000976562L27.9123 0.0111041C34.3828 0.374905 40.4796 3.11324 45.0797 7.71251C49.6789 12.3118 52.4071 18.4086 52.7717 24.8799L52.7818 25.0178Z" fill="#F9F9F9"></path><path d="M80.5572 52.7921L80.4193 52.782C73.948 52.4174 67.8512 49.679 63.252 45.0899C58.6527 40.4907 55.9245 34.3939 55.5599 27.9226L55.5498 27.7847L55.6877 27.7948C62.159 28.1594 68.2558 30.8977 72.8551 35.4868C77.4543 40.0861 80.1825 46.1829 80.5471 52.6542L80.5572 52.7921Z" fill="#F9F9F9"></path><path d="M83.3252 52.7921L83.3353 52.6542C83.6999 46.1829 86.4383 40.0861 91.0274 35.4868C95.6266 30.8876 101.723 28.1594 108.195 27.7948L108.333 27.7847L108.322 27.9226C107.958 34.3939 105.22 40.4907 100.63 45.0899C96.0312 49.6892 89.9344 52.4174 83.4631 52.782L83.3252 52.7921Z" fill="#F9F9F9"></path><path d="M55.5508 25.0176L55.5609 24.8797C55.9255 18.4084 58.6638 12.3116 63.2529 7.71233C67.853 3.11307 73.9498 0.374686 80.4203 0.0101273L80.5582 0L80.5481 0.137888C80.1835 6.60921 77.4451 12.706 72.856 17.3053C68.2568 21.9045 62.16 24.6327 55.6887 24.9973L55.5508 25.0176Z" fill="#F9F9F9"></path><path d="M108.342 25.0177L108.204 25.0076C101.733 24.643 95.636 21.9047 91.0367 17.3156C86.4374 12.7163 83.7092 6.61953 83.3447 0.148212L83.3252 0.000976562L83.4631 0.0111041C89.9336 0.374905 96.0304 3.11324 100.63 7.71251C105.23 12.3118 107.958 18.4086 108.322 24.8799L108.342 25.0177Z" fill="#F9F9F9"></path><path d="M25.0074 108.343L24.8695 108.333C18.3982 107.969 12.3014 105.23 7.70216 100.641C3.10289 96.0419 0.374686 89.9451 0.0101273 83.4738L0 83.3359L0.137889 83.3461C6.60921 83.7106 12.706 86.449 17.3053 91.0381C21.9045 95.6374 24.6327 101.734 24.9973 108.205L25.0074 108.343Z" fill="#F9F9F9"></path><path d="M27.7754 108.343L27.7855 108.205C28.1501 101.734 30.8885 95.6374 35.4775 91.0381C40.0768 86.4388 46.1736 83.7106 52.6449 83.3461L52.7828 83.3359L52.7727 83.4738C52.4081 89.9451 49.6697 96.0419 45.0807 100.641C40.4806 105.24 34.3838 107.979 27.9133 108.343L27.7754 108.343Z" fill="#F9F9F9"></path><path d="M0 80.567L0.0101273 80.4291C0.374706 73.9578 3.11307 67.861 7.70216 63.2617C12.3014 58.6625 18.3982 55.9343 24.8695 55.5697L25.0074 55.5596L24.9973 55.6975C24.6327 62.1688 21.8944 68.2656 17.3053 72.8648C12.706 77.4641 6.60921 80.1923 0.137889 80.5569L0 80.567Z" fill="#F9F9F9"></path><path d="M52.7818 80.567L52.6439 80.5569C46.1726 80.1923 40.0758 77.4539 35.4766 72.8648C30.8773 68.2656 28.1491 62.1688 27.7845 55.6975L27.7744 55.5596L27.9123 55.5697C34.3836 55.9343 40.4804 58.6726 45.0797 63.2617C49.6789 67.861 52.4071 73.9578 52.7717 80.4291L52.7818 80.567Z" fill="#F9F9F9"></path><path d="M80.5572 108.343L80.4193 108.333C73.948 107.969 67.8512 105.23 63.252 100.641C58.6527 96.0419 55.9245 89.9451 55.5599 83.4738L55.5498 83.3359L55.6877 83.3461C62.159 83.7106 68.2558 86.449 72.8551 91.0381C77.4543 95.6374 80.1825 101.734 80.5471 108.205L80.5572 108.343Z" fill="#F9F9F9"></path><path d="M83.3252 108.343L83.3353 108.205C83.6999 101.734 86.4383 95.6374 91.0274 91.0381C95.6266 86.4388 101.723 83.7106 108.195 83.3461L108.333 83.3359L108.322 83.4738C107.958 89.9451 105.22 96.0419 100.63 100.641C96.0312 105.24 89.9344 107.969 83.4631 108.333L83.3252 108.343Z" fill="#F9F9F9"></path><path d="M55.5508 80.567L55.5609 80.4291C55.9255 73.9578 58.6638 67.861 63.2529 63.2617C67.8522 58.6625 73.949 55.9343 80.4203 55.5697L80.5582 55.5596L80.5481 55.6975C80.1835 62.1688 77.4451 68.2656 72.856 72.8648C68.2568 77.4641 62.16 80.1923 55.6887 80.5569L55.5508 80.567Z" fill="#F9F9F9"></path><path d="M108.341 80.567L108.204 80.5569C101.732 80.1923 95.6354 77.4539 91.0361 72.8648C86.4369 68.2656 83.7087 62.1688 83.3441 55.6975L83.334 55.5596L83.4719 55.5697C89.9432 55.9343 96.04 58.6726 100.639 63.2617C105.239 67.861 107.967 73.9578 108.331 80.4291L108.341 80.567Z" fill="#F9F9F9"></path><path d="M457.67 52.7921L457.532 52.782C451.06 52.4174 444.964 49.679 440.364 45.0899C435.765 40.4907 433.037 34.3939 432.672 27.9226L432.662 27.7847L432.8 27.7948C439.271 28.1594 445.368 30.8977 449.967 35.4868C454.567 40.0861 457.295 46.1829 457.659 52.6542L457.67 52.7921Z" fill="#F9F9F9"></path><path d="M460.438 52.7921L460.448 52.6542C460.812 46.1829 463.551 40.0861 468.14 35.4868C472.739 30.8876 478.836 28.1594 485.307 27.7948L485.445 27.7847L485.435 27.9226C485.07 34.3939 482.332 40.4907 477.743 45.0899C473.143 49.6892 467.046 52.4174 460.575 52.782L460.438 52.7921Z" fill="#F9F9F9"></path><path d="M432.662 25.0172L432.672 24.8793C433.037 18.408 435.775 12.3112 440.364 7.71192C444.964 3.11266 451.06 0.384452 457.532 0.019893L457.67 0.00976562L457.659 0.147654C457.295 6.61897 454.556 12.7158 449.967 17.315C445.368 21.9143 439.271 24.6425 432.8 25.0071L432.662 25.0172Z" fill="#F9F9F9"></path><path d="M485.444 25.0178L485.306 25.0076C478.835 24.6431 472.738 21.9047 468.139 17.3156C463.539 12.7163 460.81 6.61955 460.446 0.138865L460.437 0.000976562L460.574 0.0111041C467.045 0.374905 473.142 3.11324 477.742 7.71251C482.341 12.3118 485.069 18.4086 485.434 24.8799L485.444 25.0178Z" fill="#F9F9F9"></path><path d="M513.219 52.7921L513.081 52.782C506.61 52.4174 500.513 49.679 495.914 45.0899C491.315 40.4907 488.587 34.3939 488.222 27.9226L488.212 27.7847L488.35 27.7948C494.821 28.1594 500.918 30.8977 505.517 35.4868C510.116 40.0861 512.845 46.1829 513.209 52.6542L513.219 52.7921Z" fill="#F9F9F9"></path><path d="M515.987 52.7921L515.997 52.6542C516.362 46.1829 519.1 40.0861 523.689 35.4868C528.289 30.8876 534.386 28.1594 540.857 27.7948L540.995 27.7847L540.985 27.9226C540.62 34.3939 537.882 40.4907 533.293 45.0899C528.693 49.6892 522.597 52.4174 516.125 52.782L515.987 52.7921Z" fill="#F9F9F9"></path><path d="M488.213 25.0176L488.223 24.8797C488.588 18.4084 491.326 12.3116 495.915 7.71233C500.515 3.11307 506.612 0.374686 513.082 0.0101273L513.22 0L513.21 0.137888C512.846 6.60921 510.107 12.706 505.518 17.3053C500.919 21.9045 494.822 24.6327 488.351 24.9973L488.213 25.0176Z" fill="#F9F9F9"></path><path d="M541.004 25.0177L540.866 25.0076C534.395 24.643 528.298 21.9047 523.699 17.3156C519.1 12.7163 516.371 6.61953 516.007 0.148212L515.987 0.000976562L516.125 0.0111041C522.596 0.374905 528.693 3.11324 533.293 7.71251C537.892 12.3118 540.62 18.4086 540.985 24.8799L541.004 25.0177Z" fill="#F9F9F9"></path><path d="M457.67 108.343L457.532 108.333C451.06 107.969 444.964 105.23 440.364 100.641C435.765 96.0419 433.037 89.9451 432.672 83.4738L432.662 83.3359L432.8 83.3461C439.271 83.7106 445.368 86.449 449.967 91.0381C454.567 95.6374 457.295 101.734 457.659 108.205L457.67 108.343Z" fill="#F9F9F9"></path><path d="M460.438 108.343L460.448 108.205C460.812 101.734 463.551 95.6374 468.14 91.0381C472.739 86.4388 478.836 83.7106 485.307 83.3461L485.445 83.3359L485.435 83.4738C485.07 89.9451 482.332 96.0419 477.743 100.641C473.143 105.24 467.046 107.979 460.575 108.343L460.438 108.343Z" fill="#F9F9F9"></path><path d="M432.662 80.567L432.672 80.4291C433.037 73.9578 435.775 67.861 440.364 63.2617C444.964 58.6625 451.06 55.9343 457.532 55.5697L457.67 55.5596L457.659 55.6975C457.295 62.1688 454.556 68.2656 449.967 72.8648C445.368 77.4641 439.271 80.1923 432.8 80.5569L432.662 80.567Z" fill="#F9F9F9"></path><path d="M485.444 80.567L485.306 80.5569C478.835 80.1923 472.738 77.4539 468.139 72.8648C463.539 68.2656 460.811 62.1688 460.447 55.6975L460.437 55.5596L460.574 55.5697C467.046 55.9343 473.143 58.6726 477.742 63.2617C482.341 67.861 485.069 73.9578 485.434 80.4291L485.444 80.567Z" fill="#F9F9F9"></path><path d="M513.219 108.343L513.081 108.333C506.61 107.969 500.513 105.23 495.914 100.641C491.315 96.0419 488.587 89.9451 488.222 83.4738L488.212 83.3359L488.35 83.3461C494.821 83.7106 500.918 86.449 505.517 91.0381C510.116 95.6374 512.845 101.734 513.209 108.205L513.219 108.343Z" fill="#F9F9F9"></path><path d="M515.987 108.343L515.997 108.205C516.362 101.734 519.1 95.6374 523.689 91.0381C528.289 86.4388 534.386 83.7106 540.857 83.3461L540.995 83.3359L540.985 83.4738C540.62 89.9451 537.882 96.0419 533.293 100.641C528.693 105.24 522.597 107.969 516.125 108.333L515.987 108.343Z" fill="#F9F9F9"></path><path d="M488.213 80.567L488.223 80.4291C488.588 73.9578 491.326 67.861 495.915 63.2617C500.514 58.6625 506.611 55.9343 513.082 55.5697L513.22 55.5596L513.21 55.6975C512.846 62.1688 510.107 68.2656 505.518 72.8648C500.919 77.4641 494.822 80.1923 488.351 80.5569L488.213 80.567Z" fill="#F9F9F9"></path><path d="M541.004 80.567L540.866 80.5569C534.394 80.1923 528.298 77.4539 523.698 72.8648C519.099 68.2656 516.371 62.1688 516.006 55.6975L515.996 55.5596L516.134 55.5697C522.605 55.9343 528.702 58.6726 533.301 63.2617C537.901 67.861 540.629 73.9578 540.993 80.4291L541.004 80.567Z" fill="#F9F9F9"></path><path d="M133.172 52.7921L133.035 52.782C126.563 52.4174 120.466 49.679 115.867 45.0899C111.268 40.4907 108.54 34.3939 108.175 27.9226L108.165 27.7847L108.303 27.7948C114.774 28.1594 120.871 30.8977 125.47 35.4868C130.07 40.0861 132.798 46.1829 133.162 52.6542L133.172 52.7921Z" fill="#F9F9F9"></path><path d="M135.94 52.7921L135.951 52.6542C136.315 46.1829 139.053 40.0861 143.643 35.4868C148.242 30.8876 154.339 28.1594 160.81 27.7948L160.948 27.7847L160.938 27.9226C160.573 34.3939 157.835 40.4907 153.246 45.0899C148.646 49.6892 142.549 52.4174 136.078 52.782L135.94 52.7921Z" fill="#F9F9F9"></path><path d="M108.165 25.0172L108.175 24.8793C108.54 18.408 111.278 12.3112 115.867 7.71192C120.466 3.11266 126.563 0.384452 133.035 0.019893L133.172 0.00976562L133.162 0.147654C132.798 6.61897 130.059 12.7158 125.47 17.315C120.871 21.9143 114.774 24.6425 108.303 25.0071L108.165 25.0172Z" fill="#F9F9F9"></path><path d="M160.947 25.0178L160.809 25.0076C154.338 24.6431 148.241 21.9047 143.642 17.3156C139.042 12.7163 136.313 6.61955 135.949 0.138865L135.939 0.000976562L136.077 0.0111041C142.548 0.374905 148.645 3.11324 153.245 7.71251C157.844 12.3118 160.572 18.4086 160.937 24.8799L160.947 25.0178Z" fill="#F9F9F9"></path><path d="M188.722 52.7921L188.584 52.782C182.113 52.4174 176.016 49.679 171.417 45.0899C166.818 40.4907 164.09 34.3939 163.725 27.9226L163.715 27.7847L163.853 27.7948C170.324 28.1594 176.421 30.8977 181.02 35.4868C185.619 40.0861 188.348 46.1829 188.712 52.6542L188.722 52.7921Z" fill="#F9F9F9"></path><path d="M191.49 52.7921L191.5 52.6542C191.865 46.1829 194.603 40.0861 199.192 35.4868C203.792 30.8876 209.888 28.1594 216.36 27.7948L216.498 27.7847L216.488 27.9226C216.123 34.3939 213.385 40.4907 208.795 45.0899C204.196 49.6892 198.099 52.4174 191.628 52.782L191.49 52.7921Z" fill="#F9F9F9"></path><path d="M163.716 25.0176L163.726 24.8797C164.091 18.4084 166.829 12.3116 171.418 7.71233C176.018 3.11307 182.115 0.374686 188.585 0.0101273L188.723 0L188.713 0.137888C188.349 6.60921 185.61 12.706 181.021 17.3053C176.422 21.9045 170.325 24.6327 163.854 24.9973L163.716 25.0176Z" fill="#F9F9F9"></path><path d="M216.507 25.0177L216.369 25.0076C209.898 24.643 203.801 21.9047 199.202 17.3156C194.602 12.7163 191.874 6.61953 191.51 0.148212L191.49 0.000976562L191.628 0.0111041C198.099 0.374905 204.195 3.11324 208.795 7.71251C213.395 12.3118 216.123 18.4086 216.488 24.8799L216.507 25.0177Z" fill="#F9F9F9"></path><path d="M133.172 108.343L133.035 108.333C126.563 107.969 120.466 105.23 115.867 100.641C111.268 96.0419 108.54 89.9451 108.175 83.4738L108.165 83.3359L108.303 83.3461C114.774 83.7106 120.871 86.449 125.47 91.0381C130.07 95.6374 132.798 101.734 133.162 108.205L133.172 108.343Z" fill="#F9F9F9"></path><path d="M135.94 108.343L135.951 108.205C136.315 101.734 139.053 95.6374 143.643 91.0381C148.242 86.4388 154.339 83.7106 160.81 83.3461L160.948 83.3359L160.938 83.4738C160.573 89.9451 157.835 96.0419 153.246 100.641C148.646 105.24 142.549 107.979 136.078 108.343L135.94 108.343Z" fill="#F9F9F9"></path><path d="M108.165 80.567L108.175 80.4291C108.54 73.9578 111.278 67.861 115.867 63.2617C120.466 58.6625 126.563 55.9343 133.035 55.5697L133.172 55.5596L133.162 55.6975C132.798 62.1688 130.059 68.2656 125.47 72.8648C120.871 77.4641 114.774 80.1923 108.303 80.5569L108.165 80.567Z" fill="#F9F9F9"></path><path d="M160.947 80.567L160.809 80.5569C154.338 80.1923 148.241 77.4539 143.642 72.8648C139.042 68.2656 136.314 62.1688 135.95 55.6975L135.939 55.5596L136.077 55.5697C142.549 55.9343 148.645 58.6726 153.245 63.2617C157.844 67.861 160.572 73.9578 160.937 80.4291L160.947 80.567Z" fill="#F9F9F9"></path><path d="M188.722 108.343L188.584 108.333C182.113 107.969 176.016 105.23 171.417 100.641C166.818 96.0419 164.09 89.9451 163.725 83.4738L163.715 83.3359L163.853 83.3461C170.324 83.7106 176.421 86.449 181.02 91.0381C185.619 95.6374 188.348 101.734 188.712 108.205L188.722 108.343Z" fill="#F9F9F9"></path><path d="M191.49 108.343L191.5 108.205C191.865 101.734 194.603 95.6374 199.192 91.0381C203.792 86.4388 209.888 83.7106 216.36 83.3461L216.498 83.3359L216.488 83.4738C216.123 89.9451 213.385 96.0419 208.795 100.641C204.196 105.24 198.099 107.969 191.628 108.333L191.49 108.343Z" fill="#F9F9F9"></path><path d="M163.716 80.567L163.726 80.4291C164.091 73.9578 166.829 67.861 171.418 63.2617C176.017 58.6625 182.114 55.9343 188.585 55.5697L188.723 55.5596L188.713 55.6975C188.349 62.1688 185.61 68.2656 181.021 72.8648C176.422 77.4641 170.325 80.1923 163.854 80.5569L163.716 80.567Z" fill="#F9F9F9"></path><path d="M216.506 80.567L216.369 80.5569C209.897 80.1923 203.8 77.4539 199.201 72.8648C194.602 68.2656 191.874 62.1688 191.509 55.6975L191.499 55.5596L191.637 55.5697C198.108 55.9343 204.205 58.6726 208.804 63.2617C213.404 67.861 216.132 73.9578 216.496 80.4291L216.506 80.567Z" fill="#F9F9F9"></path><path d="M565.835 52.7921L565.697 52.782C559.225 52.4174 553.129 49.679 548.529 45.0899C543.93 40.4907 541.202 34.3939 540.837 27.9226L540.827 27.7847L540.965 27.7948C547.436 28.1594 553.533 30.8977 558.132 35.4868C562.732 40.0861 565.46 46.1829 565.824 52.6542L565.835 52.7921Z" fill="#F9F9F9"></path><path d="M568.603 52.7921L568.613 52.6542C568.977 46.1829 571.716 40.0861 576.305 35.4868C580.904 30.8876 587.001 28.1594 593.472 27.7948L593.61 27.7847L593.6 27.9226C593.235 34.3939 590.497 40.4907 585.908 45.0899C581.308 49.6892 575.211 52.4174 568.74 52.782L568.603 52.7921Z" fill="#F9F9F9"></path><path d="M540.827 25.0172L540.837 24.8793C541.202 18.408 543.94 12.3112 548.529 7.71192C553.129 3.11266 559.225 0.384452 565.697 0.019893L565.835 0.00976562L565.824 0.147654C565.46 6.61897 562.721 12.7158 558.132 17.315C553.533 21.9143 547.436 24.6425 540.965 25.0071L540.827 25.0172Z" fill="#F9F9F9"></path><path d="M593.609 25.0178L593.471 25.0076C587 24.6431 580.903 21.9047 576.304 17.3156C571.704 12.7163 568.975 6.61955 568.611 0.138865L568.602 0.000976562L568.739 0.0111041C575.21 0.374905 581.307 3.11324 585.907 7.71251C590.506 12.3118 593.234 18.4086 593.599 24.8799L593.609 25.0178Z" fill="#F9F9F9"></path><path d="M621.384 52.7921L621.246 52.782C614.775 52.4174 608.678 49.679 604.079 45.0899C599.48 40.4907 596.752 34.3939 596.387 27.9226L596.377 27.7847L596.515 27.7948C602.986 28.1594 609.083 30.8977 613.682 35.4868C618.281 40.0861 621.01 46.1829 621.374 52.6542L621.384 52.7921Z" fill="#F9F9F9"></path><path d="M624.152 52.7921L624.162 52.6542C624.527 46.1829 627.265 40.0861 631.855 35.4868C636.454 30.8876 642.551 28.1594 649.022 27.7948L649.16 27.7847L649.15 27.9226C648.785 34.3939 646.047 40.4907 641.458 45.0899C636.858 49.6892 630.762 52.4174 624.29 52.782L624.152 52.7921Z" fill="#F9F9F9"></path><path d="M596.378 25.0176L596.388 24.8797C596.753 18.4084 599.491 12.3116 604.08 7.71233C608.68 3.11307 614.777 0.374686 621.247 0.0101273L621.385 0L621.375 0.137888C621.011 6.60921 618.272 12.706 613.683 17.3053C609.084 21.9045 602.987 24.6327 596.516 24.9973L596.378 25.0176Z" fill="#F9F9F9"></path><path d="M649.169 25.0177L649.031 25.0076C642.56 24.643 636.463 21.9047 631.864 17.3156C627.265 12.7163 624.536 6.61953 624.172 0.148212L624.152 0.000976562L624.29 0.0111041C630.761 0.374905 636.858 3.11324 641.458 7.71251C646.057 12.3118 648.785 18.4086 649.15 24.8799L649.169 25.0177Z" fill="#F9F9F9"></path><path d="M565.835 108.343L565.697 108.333C559.225 107.969 553.129 105.23 548.529 100.641C543.93 96.0419 541.202 89.9451 540.837 83.4738L540.827 83.3359L540.965 83.3461C547.436 83.7106 553.533 86.449 558.132 91.0381C562.732 95.6374 565.46 101.734 565.824 108.205L565.835 108.343Z" fill="#F9F9F9"></path><path d="M568.603 108.343L568.613 108.205C568.977 101.734 571.716 95.6374 576.305 91.0381C580.904 86.4388 587.001 83.7106 593.472 83.3461L593.61 83.3359L593.6 83.4738C593.235 89.9451 590.497 96.0419 585.908 100.641C581.308 105.24 575.211 107.979 568.74 108.343L568.603 108.343Z" fill="#F9F9F9"></path><path d="M540.827 80.567L540.837 80.4291C541.202 73.9578 543.94 67.861 548.529 63.2617C553.129 58.6625 559.225 55.9343 565.697 55.5697L565.835 55.5596L565.824 55.6975C565.46 62.1688 562.721 68.2656 558.132 72.8648C553.533 77.4641 547.436 80.1923 540.965 80.5569L540.827 80.567Z" fill="#F9F9F9"></path><path d="M593.609 80.567L593.471 80.5569C587 80.1923 580.903 77.4539 576.304 72.8648C571.704 68.2656 568.976 62.1688 568.612 55.6975L568.602 55.5596L568.739 55.5697C575.211 55.9343 581.308 58.6726 585.907 63.2617C590.506 67.861 593.234 73.9578 593.599 80.4291L593.609 80.567Z" fill="#F9F9F9"></path><path d="M621.384 108.343L621.246 108.333C614.775 107.969 608.678 105.23 604.079 100.641C599.48 96.0419 596.752 89.9451 596.387 83.4738L596.377 83.3359L596.515 83.3461C602.986 83.7106 609.083 86.449 613.682 91.0381C618.281 95.6374 621.01 101.734 621.374 108.205L621.384 108.343Z" fill="#F9F9F9"></path><path d="M624.152 108.343L624.162 108.205C624.527 101.734 627.265 95.6374 631.855 91.0381C636.454 86.4388 642.551 83.7106 649.022 83.3461L649.16 83.3359L649.15 83.4738C648.785 89.9451 646.047 96.0419 641.458 100.641C636.858 105.24 630.762 107.969 624.29 108.333L624.152 108.343Z" fill="#F9F9F9"></path><path d="M596.378 80.567L596.388 80.4291C596.753 73.9578 599.491 67.861 604.08 63.2617C608.679 58.6625 614.776 55.9343 621.247 55.5697L621.385 55.5596L621.375 55.6975C621.011 62.1688 618.272 68.2656 613.683 72.8648C609.084 77.4641 602.987 80.1923 596.516 80.5569L596.378 80.567Z" fill="#F9F9F9"></path><path d="M649.169 80.567L649.031 80.5569C642.559 80.1923 636.463 77.4539 631.863 72.8648C627.264 68.2656 624.536 62.1688 624.171 55.6975L624.161 55.5596L624.299 55.5697C630.77 55.9343 636.867 58.6726 641.466 63.2617C646.066 67.861 648.794 73.9578 649.158 80.4291L649.169 80.567Z" fill="#F9F9F9"></path><path d="M241.338 52.7921L241.201 52.782C234.729 52.4174 228.632 49.679 224.033 45.0899C219.434 40.4907 216.706 34.3939 216.341 27.9226L216.331 27.7847L216.469 27.7948C222.94 28.1594 229.037 30.8977 233.636 35.4868C238.236 40.0861 240.964 46.1829 241.328 52.6542L241.338 52.7921Z" fill="#F9F9F9"></path><path d="M244.106 52.7921L244.117 52.6542C244.481 46.1829 247.22 40.0861 251.809 35.4868C256.408 30.8876 262.505 28.1594 268.976 27.7948L269.114 27.7847L269.104 27.9226C268.739 34.3939 266.001 40.4907 261.412 45.0899C256.812 49.6892 250.715 52.4174 244.244 52.782L244.106 52.7921Z" fill="#F9F9F9"></path><path d="M216.331 25.0172L216.341 24.8793C216.706 18.408 219.444 12.3112 224.033 7.71192C228.632 3.11266 234.729 0.384452 241.201 0.019893L241.338 0.00976562L241.328 0.147654C240.964 6.61897 238.225 12.7158 233.636 17.315C229.037 21.9143 222.94 24.6425 216.469 25.0071L216.331 25.0172Z" fill="#F9F9F9"></path><path d="M269.113 25.0178L268.975 25.0076C262.504 24.6431 256.407 21.9047 251.808 17.3156C247.208 12.7163 244.479 6.61955 244.115 0.138865L244.105 0.000976562L244.243 0.0111041C250.714 0.374905 256.811 3.11324 261.411 7.71251C266.01 12.3118 268.738 18.4086 269.103 24.8799L269.113 25.0178Z" fill="#F9F9F9"></path><path d="M296.888 52.7921L296.75 52.782C290.279 52.4174 284.182 49.679 279.583 45.0899C274.984 40.4907 272.256 34.3939 271.891 27.9226L271.881 27.7847L272.019 27.7948C278.49 28.1594 284.587 30.8977 289.186 35.4868C293.785 40.0861 296.514 46.1829 296.878 52.6542L296.888 52.7921Z" fill="#F9F9F9"></path><path d="M299.656 52.7921L299.666 52.6542C300.031 46.1829 302.769 40.0861 307.358 35.4868C311.958 30.8876 318.054 28.1594 324.526 27.7948L324.664 27.7847L324.654 27.9226C324.289 34.3939 321.551 40.4907 316.962 45.0899C312.362 49.6892 306.265 52.4174 299.794 52.782L299.656 52.7921Z" fill="#F9F9F9"></path><path d="M271.881 25.0176L271.891 24.8797C272.256 18.4084 274.994 12.3116 279.583 7.71233C284.183 3.11307 290.28 0.374686 296.75 0.0101273L296.888 0L296.878 0.137888C296.514 6.60921 293.775 12.706 289.186 17.3053C284.587 21.9045 278.49 24.6327 272.019 24.9973L271.881 25.0176Z" fill="#F9F9F9"></path><path d="M324.673 25.0177L324.535 25.0076C318.064 24.643 311.967 21.9047 307.368 17.3156C302.768 12.7163 300.04 6.61953 299.676 0.148212L299.656 0.000976562L299.794 0.0111041C306.265 0.374905 312.361 3.11324 316.962 7.71251C321.561 12.3118 324.289 18.4086 324.654 24.8799L324.673 25.0177Z" fill="#F9F9F9"></path><path d="M241.338 108.343L241.201 108.333C234.729 107.969 228.632 105.23 224.033 100.641C219.434 96.0419 216.706 89.9451 216.341 83.4738L216.331 83.3359L216.469 83.3461C222.94 83.7106 229.037 86.449 233.636 91.0381C238.236 95.6374 240.964 101.734 241.328 108.205L241.338 108.343Z" fill="#F9F9F9"></path><path d="M244.106 108.343L244.117 108.205C244.481 101.734 247.22 95.6374 251.809 91.0381C256.408 86.4388 262.505 83.7106 268.976 83.3461L269.114 83.3359L269.104 83.4738C268.739 89.9451 266.001 96.0419 261.412 100.641C256.812 105.24 250.715 107.979 244.244 108.343L244.106 108.343Z" fill="#F9F9F9"></path><path d="M216.331 80.567L216.341 80.4291C216.706 73.9578 219.444 67.861 224.033 63.2617C228.632 58.6625 234.729 55.9343 241.201 55.5697L241.338 55.5596L241.328 55.6975C240.964 62.1688 238.225 68.2656 233.636 72.8648C229.037 77.4641 222.94 80.1923 216.469 80.5569L216.331 80.567Z" fill="#F9F9F9"></path><path d="M269.113 80.567L268.975 80.5569C262.504 80.1923 256.407 77.4539 251.808 72.8648C247.208 68.2656 244.48 62.1688 244.116 55.6975L244.105 55.5596L244.243 55.5697C250.715 55.9343 256.811 58.6726 261.411 63.2617C266.01 67.861 268.738 73.9578 269.103 80.4291L269.113 80.567Z" fill="#F9F9F9"></path><path d="M296.888 108.343L296.75 108.333C290.279 107.969 284.182 105.23 279.583 100.641C274.984 96.0419 272.256 89.9451 271.891 83.4738L271.881 83.3359L272.019 83.3461C278.49 83.7106 284.587 86.449 289.186 91.0381C293.785 95.6374 296.514 101.734 296.878 108.205L296.888 108.343Z" fill="#F9F9F9"></path><path d="M299.656 108.343L299.666 108.205C300.031 101.734 302.769 95.6374 307.358 91.0381C311.958 86.4388 318.054 83.7106 324.526 83.3461L324.664 83.3359L324.654 83.4738C324.289 89.9451 321.551 96.0419 316.962 100.641C312.362 105.24 306.265 107.969 299.794 108.333L299.656 108.343Z" fill="#F9F9F9"></path><path d="M271.881 80.567L271.891 80.4291C272.256 73.9578 274.994 67.861 279.583 63.2617C284.182 58.6625 290.279 55.9343 296.75 55.5697L296.888 55.5596L296.878 55.6975C296.514 62.1688 293.775 68.2656 289.186 72.8648C284.587 77.4641 278.49 80.1923 272.019 80.5569L271.881 80.567Z" fill="#F9F9F9"></path><path d="M324.672 80.567L324.535 80.5569C318.063 80.1923 311.966 77.4539 307.367 72.8648C302.768 68.2656 300.04 62.1688 299.675 55.6975L299.665 55.5596L299.803 55.5697C306.274 55.9343 312.371 58.6726 316.97 63.2617C321.57 67.861 324.298 73.9578 324.662 80.4291L324.672 80.567Z" fill="#F9F9F9"></path><path d="M674.001 52.7921L673.863 52.782C667.391 52.4174 661.295 49.679 656.695 45.0899C652.096 40.4907 649.368 34.3939 649.003 27.9226L648.993 27.7847L649.131 27.7948C655.602 28.1594 661.699 30.8977 666.298 35.4868C670.898 40.0861 673.626 46.1829 673.99 52.6542L674.001 52.7921Z" fill="#F9F9F9"></path><path d="M676.769 52.7921L676.779 52.6542C677.143 46.1829 679.882 40.0861 684.471 35.4868C689.07 30.8876 695.167 28.1594 701.638 27.7948L701.776 27.7847L701.766 27.9226C701.401 34.3939 698.663 40.4907 694.074 45.0899C689.474 49.6892 683.377 52.4174 676.906 52.782L676.769 52.7921Z" fill="#F9F9F9"></path><path d="M648.993 25.0172L649.003 24.8793C649.368 18.408 652.106 12.3112 656.695 7.71192C661.295 3.11266 667.391 0.384452 673.863 0.019893L674.001 0.00976562L673.99 0.147654C673.626 6.61897 670.888 12.7158 666.298 17.315C661.699 21.9143 655.602 24.6425 649.131 25.0071L648.993 25.0172Z" fill="#F9F9F9"></path><path d="M701.775 25.0178L701.637 25.0076C695.166 24.6431 689.069 21.9047 684.47 17.3156C679.87 12.7163 677.141 6.61955 676.777 0.138865L676.768 0.000976562L676.905 0.0111041C683.376 0.374905 689.473 3.11324 694.073 7.71251C698.672 12.3118 701.4 18.4086 701.765 24.8799L701.775 25.0178Z" fill="#F9F9F9"></path><path d="M729.55 52.7921L729.412 52.782C722.941 52.4174 716.844 49.679 712.245 45.0899C707.646 40.4907 704.918 34.3939 704.553 27.9226L704.543 27.7847L704.681 27.7948C711.152 28.1594 717.249 30.8977 721.848 35.4868C726.447 40.0861 729.176 46.1829 729.54 52.6542L729.55 52.7921Z" fill="#F9F9F9"></path><path d="M732.318 52.7921L732.328 52.6542C732.693 46.1829 735.431 40.0861 740.021 35.4868C744.62 30.8876 750.717 28.1594 757.188 27.7948L757.326 27.7847L757.316 27.9226C756.951 34.3939 754.213 40.4907 749.624 45.0899C745.024 49.6892 738.928 52.4174 732.456 52.782L732.318 52.7921Z" fill="#F9F9F9"></path><path d="M704.544 25.0176L704.554 24.8797C704.919 18.4084 707.657 12.3116 712.246 7.71233C716.846 3.11307 722.943 0.374686 729.413 0.0101273L729.551 0L729.541 0.137888C729.177 6.60921 726.438 12.706 721.849 17.3053C717.25 21.9045 711.153 24.6327 704.682 24.9973L704.544 25.0176Z" fill="#F9F9F9"></path><path d="M757.335 25.0177L757.197 25.0076C750.726 24.643 744.629 21.9047 740.03 17.3156C735.431 12.7163 732.702 6.61953 732.338 0.148212L732.318 0.000976562L732.456 0.0111041C738.927 0.374905 745.024 3.11324 749.624 7.71251C754.223 12.3118 756.951 18.4086 757.316 24.8799L757.335 25.0177Z" fill="#F9F9F9"></path><path d="M674.001 108.343L673.863 108.333C667.391 107.969 661.295 105.23 656.695 100.641C652.096 96.0419 649.368 89.9451 649.003 83.4738L648.993 83.3359L649.131 83.3461C655.602 83.7106 661.699 86.449 666.298 91.0381C670.898 95.6374 673.626 101.734 673.99 108.205L674.001 108.343Z" fill="#F9F9F9"></path><path d="M676.769 108.343L676.779 108.205C677.143 101.734 679.882 95.6374 684.471 91.0381C689.07 86.4388 695.167 83.7106 701.638 83.3461L701.776 83.3359L701.766 83.4738C701.401 89.9451 698.663 96.0419 694.074 100.641C689.474 105.24 683.377 107.979 676.906 108.343L676.769 108.343Z" fill="#F9F9F9"></path><path d="M648.993 80.567L649.003 80.4291C649.368 73.9578 652.106 67.861 656.695 63.2617C661.295 58.6625 667.391 55.9343 673.863 55.5697L674.001 55.5596L673.99 55.6975C673.626 62.1688 670.888 68.2656 666.298 72.8648C661.699 77.4641 655.602 80.1923 649.131 80.5569L648.993 80.567Z" fill="#F9F9F9"></path><path d="M701.775 80.567L701.637 80.5569C695.166 80.1923 689.069 77.4539 684.47 72.8648C679.87 68.2656 677.142 62.1688 676.778 55.6975L676.768 55.5596L676.905 55.5697C683.377 55.9343 689.474 58.6726 694.073 63.2617C698.672 67.861 701.4 73.9578 701.765 80.4291L701.775 80.567Z" fill="#F9F9F9"></path><path d="M729.55 108.343L729.412 108.333C722.941 107.969 716.844 105.23 712.245 100.641C707.646 96.0419 704.918 89.9451 704.553 83.4738L704.543 83.3359L704.681 83.3461C711.152 83.7106 717.249 86.449 721.848 91.0381C726.447 95.6374 729.176 101.734 729.54 108.205L729.55 108.343Z" fill="#F9F9F9"></path><path d="M732.318 108.343L732.328 108.205C732.693 101.734 735.431 95.6374 740.021 91.0381C744.62 86.4388 750.717 83.7106 757.188 83.3461L757.326 83.3359L757.316 83.4738C756.951 89.9451 754.213 96.0419 749.624 100.641C745.024 105.24 738.928 107.969 732.456 108.333L732.318 108.343Z" fill="#F9F9F9"></path><path d="M704.544 80.567L704.554 80.4291C704.919 73.9578 707.657 67.861 712.246 63.2617C716.845 58.6625 722.942 55.9343 729.413 55.5697L729.551 55.5596L729.541 55.6975C729.177 62.1688 726.438 68.2656 721.849 72.8648C717.25 77.4641 711.153 80.1923 704.682 80.5569L704.544 80.567Z" fill="#F9F9F9"></path><path d="M757.335 80.567L757.197 80.5569C750.725 80.1923 744.629 77.4539 740.029 72.8648C735.43 68.2656 732.702 62.1688 732.337 55.6975L732.327 55.5596L732.465 55.5697C738.936 55.9343 745.033 58.6726 749.632 63.2617C754.232 67.861 756.96 73.9578 757.324 80.4291L757.335 80.567Z" fill="#F9F9F9"></path><path d="M349.504 52.7921L349.366 52.782C342.894 52.4174 336.798 49.679 332.198 45.0899C327.599 40.4907 324.871 34.3939 324.506 27.9226L324.496 27.7847L324.634 27.7948C331.105 28.1594 337.202 30.8977 341.801 35.4868C346.401 40.0861 349.129 46.1829 349.493 52.6542L349.504 52.7921Z" fill="#F9F9F9"></path><path d="M352.271 52.7921L352.282 52.6542C352.646 46.1829 355.385 40.0861 359.974 35.4868C364.573 30.8876 370.67 28.1594 377.141 27.7948L377.279 27.7847L377.269 27.9226C376.904 34.3939 374.166 40.4907 369.577 45.0899C364.977 49.6892 358.88 52.4174 352.409 52.782L352.271 52.7921Z" fill="#F9F9F9"></path><path d="M324.496 25.0172L324.506 24.8793C324.871 18.408 327.609 12.3112 332.198 7.71192C336.798 3.11266 342.894 0.384452 349.366 0.019893L349.504 0.00976562L349.493 0.147654C349.129 6.61897 346.39 12.7158 341.801 17.315C337.202 21.9143 331.105 24.6425 324.634 25.0071L324.496 25.0172Z" fill="#F9F9F9"></path><path d="M377.278 25.0178L377.14 25.0076C370.669 24.6431 364.572 21.9047 359.973 17.3156C355.373 12.7163 352.644 6.61955 352.28 0.138865L352.271 0.000976562L352.408 0.0111041C358.879 0.374905 364.976 3.11324 369.576 7.71251C374.175 12.3118 376.903 18.4086 377.268 24.8799L377.278 25.0178Z" fill="#F9F9F9"></path><path d="M405.053 52.7921L404.915 52.782C398.444 52.4174 392.347 49.679 387.748 45.0899C383.149 40.4907 380.421 34.3939 380.056 27.9226L380.046 27.7847L380.184 27.7948C386.655 28.1594 392.752 30.8977 397.351 35.4868C401.95 40.0861 404.679 46.1829 405.043 52.6542L405.053 52.7921Z" fill="#F9F9F9"></path><path d="M407.821 52.7921L407.831 52.6542C408.196 46.1829 410.934 40.0861 415.523 35.4868C420.123 30.8876 426.219 28.1594 432.691 27.7948L432.829 27.7847L432.819 27.9226C432.454 34.3939 429.716 40.4907 425.127 45.0899C420.527 49.6892 414.43 52.4174 407.959 52.782L407.821 52.7921Z" fill="#F9F9F9"></path><path d="M380.046 25.0176L380.056 24.8797C380.421 18.4084 383.159 12.3116 387.748 7.71233C392.348 3.11307 398.445 0.374686 404.915 0.0101273L405.053 0L405.043 0.137888C404.679 6.60921 401.94 12.706 397.351 17.3053C392.752 21.9045 386.655 24.6327 380.184 24.9973L380.046 25.0176Z" fill="#F9F9F9"></path><path d="M432.838 25.0177L432.7 25.0076C426.229 24.643 420.132 21.9047 415.533 17.3156C410.934 12.7163 408.205 6.61953 407.841 0.148212L407.821 0.000976562L407.959 0.0111041C414.43 0.374905 420.526 3.11324 425.127 7.71251C429.726 12.3118 432.454 18.4086 432.819 24.8799L432.838 25.0177Z" fill="#F9F9F9"></path><path d="M349.504 108.343L349.366 108.333C342.894 107.969 336.798 105.23 332.198 100.641C327.599 96.0419 324.871 89.9451 324.506 83.4738L324.496 83.3359L324.634 83.3461C331.105 83.7106 337.202 86.449 341.801 91.0381C346.401 95.6374 349.129 101.734 349.493 108.205L349.504 108.343Z" fill="#F9F9F9"></path><path d="M352.271 108.343L352.282 108.205C352.646 101.734 355.385 95.6374 359.974 91.0381C364.573 86.4388 370.67 83.7106 377.141 83.3461L377.279 83.3359L377.269 83.4738C376.904 89.9451 374.166 96.0419 369.577 100.641C364.977 105.24 358.88 107.979 352.409 108.343L352.271 108.343Z" fill="#F9F9F9"></path><path d="M324.496 80.567L324.506 80.4291C324.871 73.9578 327.609 67.861 332.198 63.2617C336.798 58.6625 342.894 55.9343 349.366 55.5697L349.504 55.5596L349.493 55.6975C349.129 62.1688 346.39 68.2656 341.801 72.8648C337.202 77.4641 331.105 80.1923 324.634 80.5569L324.496 80.567Z" fill="#F9F9F9"></path><path d="M377.278 80.567L377.14 80.5569C370.669 80.1923 364.572 77.4539 359.973 72.8648C355.373 68.2656 352.645 62.1688 352.281 55.6975L352.271 55.5596L352.408 55.5697C358.88 55.9343 364.976 58.6726 369.576 63.2617C374.175 67.861 376.903 73.9578 377.268 80.4291L377.278 80.567Z" fill="#F9F9F9"></path><path d="M405.053 108.343L404.915 108.333C398.444 107.969 392.347 105.23 387.748 100.641C383.149 96.0419 380.421 89.9451 380.056 83.4738L380.046 83.3359L380.184 83.3461C386.655 83.7106 392.752 86.449 397.351 91.0381C401.95 95.6374 404.679 101.734 405.043 108.205L405.053 108.343Z" fill="#F9F9F9"></path><path d="M407.821 108.343L407.831 108.205C408.196 101.734 410.934 95.6374 415.523 91.0381C420.123 86.4388 426.219 83.7106 432.691 83.3461L432.829 83.3359L432.819 83.4738C432.454 89.9451 429.716 96.0419 425.127 100.641C420.527 105.24 414.43 107.969 407.959 108.333L407.821 108.343Z" fill="#F9F9F9"></path><path d="M380.046 80.567L380.056 80.4291C380.421 73.9578 383.159 67.861 387.748 63.2617C392.347 58.6625 398.444 55.9343 404.915 55.5697L405.053 55.5596L405.043 55.6975C404.679 62.1688 401.94 68.2656 397.351 72.8648C392.752 77.4641 386.655 80.1923 380.184 80.5569L380.046 80.567Z" fill="#F9F9F9"></path><path d="M432.837 80.567L432.7 80.5569C426.228 80.1923 420.132 77.4539 415.532 72.8648C410.933 68.2656 408.205 62.1688 407.84 55.6975L407.83 55.5596L407.968 55.5697C414.439 55.9343 420.536 58.6726 425.135 63.2617C429.735 67.861 432.463 73.9578 432.827 80.4291L432.837 80.567Z" fill="#F9F9F9"></path><path d="M782.166 52.7921L782.028 52.782C775.556 52.4174 769.46 49.679 764.86 45.0899C760.261 40.4907 757.533 34.3939 757.168 27.9226L757.158 27.7847L757.296 27.7948C763.767 28.1594 769.864 30.8977 774.463 35.4868C779.063 40.0861 781.791 46.1829 782.155 52.6542L782.166 52.7921Z" fill="#F9F9F9"></path><path d="M784.934 52.7921L784.944 52.6542C785.308 46.1829 788.047 40.0861 792.636 35.4868C797.235 30.8876 803.332 28.1594 809.803 27.7948L809.941 27.7847L809.931 27.9226C809.566 34.3939 806.828 40.4907 802.239 45.0899C797.639 49.6892 791.542 52.4174 785.071 52.782L784.934 52.7921Z" fill="#F9F9F9"></path><path d="M757.158 25.0172L757.168 24.8793C757.533 18.408 760.271 12.3112 764.86 7.71192C769.46 3.11266 775.556 0.384452 782.028 0.019893L782.166 0.00976562L782.155 0.147654C781.791 6.61897 779.053 12.7158 774.463 17.315C769.864 21.9143 763.767 24.6425 757.296 25.0071L757.158 25.0172Z" fill="#F9F9F9"></path><path d="M809.94 25.0178L809.802 25.0076C803.331 24.6431 797.234 21.9047 792.635 17.3156C788.035 12.7163 785.307 6.61955 784.942 0.138865L784.933 0.000976562L785.071 0.0111041C791.541 0.374905 797.638 3.11324 802.238 7.71251C806.837 12.3118 809.565 18.4086 809.93 24.8799L809.94 25.0178Z" fill="#F9F9F9"></path><path d="M837.715 52.7921L837.578 52.782C831.106 52.4174 825.009 49.679 820.41 45.0899C815.811 40.4907 813.083 34.3939 812.718 27.9226L812.708 27.7847L812.846 27.7948C819.317 28.1594 825.414 30.8977 830.013 35.4868C834.613 40.0861 837.341 46.1829 837.705 52.6542L837.715 52.7921Z" fill="#F9F9F9"></path><path d="M840.483 52.7921L840.494 52.6542C840.858 46.1829 843.596 40.0861 848.186 35.4868C852.785 30.8876 858.882 28.1594 865.353 27.7948L865.491 27.7847L865.481 27.9226C865.116 34.3939 862.378 40.4907 857.789 45.0899C853.189 49.6892 847.093 52.4174 840.621 52.782L840.483 52.7921Z" fill="#F9F9F9"></path><path d="M812.709 25.0176L812.719 24.8797C813.084 18.4084 815.822 12.3116 820.411 7.71233C825.011 3.11307 831.108 0.374686 837.579 0.0101273L837.716 0L837.706 0.137888C837.342 6.60921 834.603 12.706 830.014 17.3053C825.415 21.9045 819.318 24.6327 812.847 24.9973L812.709 25.0176Z" fill="#F9F9F9"></path><path d="M865.5 25.0177L865.362 25.0076C858.891 24.643 852.794 21.9047 848.195 17.3156C843.596 12.7163 840.867 6.61953 840.503 0.148212L840.483 0.000976562L840.621 0.0111041C847.092 0.374905 853.189 3.11324 857.789 7.71251C862.388 12.3118 865.116 18.4086 865.481 24.8799L865.5 25.0177Z" fill="#F9F9F9"></path><path d="M782.166 108.343L782.028 108.333C775.556 107.969 769.46 105.23 764.86 100.641C760.261 96.0419 757.533 89.9451 757.168 83.4738L757.158 83.3359L757.296 83.3461C763.767 83.7106 769.864 86.449 774.463 91.0381C779.063 95.6374 781.791 101.734 782.155 108.205L782.166 108.343Z" fill="#F9F9F9"></path><path d="M784.934 108.343L784.944 108.205C785.308 101.734 788.047 95.6374 792.636 91.0381C797.235 86.4388 803.332 83.7106 809.803 83.3461L809.941 83.3359L809.931 83.4738C809.566 89.9451 806.828 96.0419 802.239 100.641C797.639 105.24 791.542 107.979 785.071 108.343L784.934 108.343Z" fill="#F9F9F9"></path><path d="M757.158 80.567L757.168 80.4291C757.533 73.9578 760.271 67.861 764.86 63.2617C769.46 58.6625 775.556 55.9343 782.028 55.5697L782.166 55.5596L782.155 55.6975C781.791 62.1688 779.053 68.2656 774.463 72.8648C769.864 77.4641 763.767 80.1923 757.296 80.5569L757.158 80.567Z" fill="#F9F9F9"></path><path d="M809.94 80.567L809.802 80.5569C803.331 80.1923 797.234 77.4539 792.635 72.8648C788.036 68.2656 785.307 62.1688 784.943 55.6975L784.933 55.5596L785.071 55.5697C791.542 55.9343 797.639 58.6726 802.238 63.2617C806.837 67.861 809.565 73.9578 809.93 80.4291L809.94 80.567Z" fill="#F9F9F9"></path><path d="M837.715 108.343L837.578 108.333C831.106 107.969 825.009 105.23 820.41 100.641C815.811 96.0419 813.083 89.9451 812.718 83.4738L812.708 83.3359L812.846 83.3461C819.317 83.7106 825.414 86.449 830.013 91.0381C834.613 95.6374 837.341 101.734 837.705 108.205L837.715 108.343Z" fill="#F9F9F9"></path><path d="M840.483 108.343L840.494 108.205C840.858 101.734 843.596 95.6374 848.186 91.0381C852.785 86.4388 858.882 83.7106 865.353 83.3461L865.491 83.3359L865.481 83.4738C865.116 89.9451 862.378 96.0419 857.789 100.641C853.189 105.24 847.093 107.969 840.621 108.333L840.483 108.343Z" fill="#F9F9F9"></path><path d="M812.709 80.567L812.719 80.4291C813.084 73.9578 815.822 67.861 820.411 63.2617C825.01 58.6625 831.107 55.9343 837.579 55.5697L837.716 55.5596L837.706 55.6975C837.342 62.1688 834.603 68.2656 830.014 72.8648C825.415 77.4641 819.318 80.1923 812.847 80.5569L812.709 80.567Z" fill="#F9F9F9"></path><path d="M865.5 80.567L865.362 80.5569C858.89 80.1923 852.794 77.4539 848.194 72.8648C843.595 68.2656 840.867 62.1688 840.502 55.6975L840.492 55.5596L840.63 55.5697C847.101 55.9343 853.198 58.6726 857.797 63.2617C862.397 67.861 865.125 73.9578 865.489 80.4291L865.5 80.567Z" fill="#F9F9F9"></path><path d="M890.507 52.7921L890.37 52.782C883.898 52.4174 877.801 49.679 873.202 45.0899C868.603 40.4907 865.875 34.3939 865.51 27.9226L865.5 27.7847L865.638 27.7948C872.109 28.1594 878.206 30.8977 882.805 35.4868C887.405 40.0861 890.133 46.1829 890.497 52.6542L890.507 52.7921Z" fill="#F9F9F9"></path><path d="M893.275 52.7921L893.286 52.6542C893.65 46.1829 896.388 40.0861 900.978 35.4868C905.577 30.8876 911.674 28.1594 918.145 27.7948L918.283 27.7847L918.273 27.9226C917.908 34.3939 915.17 40.4907 910.581 45.0899C905.981 49.6892 899.884 52.4174 893.413 52.782L893.275 52.7921Z" fill="#F9F9F9"></path><path d="M865.5 25.0172L865.51 24.8793C865.875 18.408 868.613 12.3112 873.202 7.71192C877.801 3.11266 883.898 0.384452 890.37 0.019893L890.507 0.00976562L890.497 0.147654C890.133 6.61897 887.394 12.7158 882.805 17.315C878.206 21.9143 872.109 24.6425 865.638 25.0071L865.5 25.0172Z" fill="#F9F9F9"></path><path d="M918.282 25.0178L918.144 25.0076C911.673 24.6431 905.576 21.9047 900.977 17.3156C896.377 12.7163 893.648 6.61955 893.284 0.138865L893.274 0.000976562L893.412 0.0111041C899.883 0.374905 905.98 3.11324 910.58 7.71251C915.179 12.3118 917.907 18.4086 918.272 24.8799L918.282 25.0178Z" fill="#F9F9F9"></path><path d="M946.057 52.7921L945.919 52.782C939.448 52.4174 933.351 49.679 928.752 45.0899C924.153 40.4907 921.424 34.3939 921.06 27.9226L921.05 27.7847L921.188 27.7948C927.659 28.1594 933.756 30.8977 938.355 35.4868C942.954 40.0861 945.683 46.1829 946.047 52.6542L946.057 52.7921Z" fill="#F9F9F9"></path><path d="M948.825 52.7921L948.835 52.6542C949.2 46.1829 951.938 40.0861 956.527 35.4868C961.127 30.8876 967.223 28.1594 973.695 27.7948L973.833 27.7847L973.822 27.9226C973.458 34.3939 970.72 40.4907 966.13 45.0899C961.531 49.6892 955.434 52.4174 948.963 52.782L948.825 52.7921Z" fill="#F9F9F9"></path><path d="M921.051 25.0176L921.061 24.8797C921.425 18.4084 924.164 12.3116 928.753 7.71233C933.353 3.11307 939.45 0.374686 945.92 0.0101273L946.058 0L946.048 0.137888C945.683 6.60921 942.945 12.706 938.356 17.3053C933.757 21.9045 927.66 24.6327 921.189 24.9973L921.051 25.0176Z" fill="#F9F9F9"></path><path d="M973.842 25.0177L973.704 25.0076C967.233 24.643 961.136 21.9047 956.537 17.3156C951.937 12.7163 949.209 6.61953 948.845 0.148212L948.825 0.000976562L948.963 0.0111041C955.434 0.374905 961.53 3.11324 966.13 7.71251C970.73 12.3118 973.458 18.4086 973.822 24.8799L973.842 25.0177Z" fill="#F9F9F9"></path><path d="M890.507 108.343L890.37 108.333C883.898 107.969 877.801 105.23 873.202 100.641C868.603 96.0419 865.875 89.9451 865.51 83.4738L865.5 83.3359L865.638 83.3461C872.109 83.7106 878.206 86.449 882.805 91.0381C887.405 95.6374 890.133 101.734 890.497 108.205L890.507 108.343Z" fill="#F9F9F9"></path><path d="M893.275 108.343L893.286 108.205C893.65 101.734 896.388 95.6374 900.978 91.0381C905.577 86.4388 911.674 83.7106 918.145 83.3461L918.283 83.3359L918.273 83.4738C917.908 89.9451 915.17 96.0419 910.581 100.641C905.981 105.24 899.884 107.979 893.413 108.343L893.275 108.343Z" fill="#F9F9F9"></path><path d="M865.5 80.567L865.51 80.4291C865.875 73.9578 868.613 67.861 873.202 63.2617C877.801 58.6625 883.898 55.9343 890.37 55.5697L890.507 55.5596L890.497 55.6975C890.133 62.1688 887.394 68.2656 882.805 72.8648C878.206 77.4641 872.109 80.1923 865.638 80.5569L865.5 80.567Z" fill="#F9F9F9"></path><path d="M918.282 80.567L918.144 80.5569C911.673 80.1923 905.576 77.4539 900.977 72.8648C896.377 68.2656 893.649 62.1688 893.285 55.6975L893.274 55.5596L893.412 55.5697C899.884 55.9343 905.98 58.6726 910.58 63.2617C915.179 67.861 917.907 73.9578 918.272 80.4291L918.282 80.567Z" fill="#F9F9F9"></path><path d="M946.057 108.343L945.919 108.333C939.448 107.969 933.351 105.23 928.752 100.641C924.153 96.0419 921.424 89.9451 921.06 83.4738L921.05 83.3359L921.188 83.3461C927.659 83.7106 933.756 86.449 938.355 91.0381C942.954 95.6374 945.683 101.734 946.047 108.205L946.057 108.343Z" fill="#F9F9F9"></path><path d="M948.825 108.343L948.835 108.205C949.2 101.734 951.938 95.6374 956.527 91.0381C961.127 86.4388 967.223 83.7106 973.695 83.3461L973.833 83.3359L973.822 83.4738C973.458 89.9451 970.72 96.0419 966.13 100.641C961.531 105.24 955.434 107.969 948.963 108.333L948.825 108.343Z" fill="#F9F9F9"></path><path d="M921.051 80.567L921.061 80.4291C921.425 73.9578 924.164 67.861 928.753 63.2617C933.352 58.6625 939.449 55.9343 945.92 55.5697L946.058 55.5596L946.048 55.6975C945.683 62.1688 942.945 68.2656 938.356 72.8648C933.757 77.4641 927.66 80.1923 921.189 80.5569L921.051 80.567Z" fill="#F9F9F9"></path><path d="M973.841 80.567L973.704 80.5569C967.232 80.1923 961.135 77.4539 956.536 72.8648C951.937 68.2656 949.209 62.1688 948.844 55.6975L948.834 55.5596L948.972 55.5697C955.443 55.9343 961.54 58.6726 966.139 63.2617C970.739 67.861 973.467 73.9578 973.831 80.4291L973.841 80.567Z" fill="#F9F9F9"></path><path d="M1323.17 52.7921L1323.03 52.782C1316.56 52.4174 1310.46 49.679 1305.86 45.0899C1301.27 40.4907 1298.54 34.3939 1298.17 27.9226L1298.16 27.7847L1298.3 27.7948C1304.77 28.1594 1310.87 30.8977 1315.47 35.4868C1320.07 40.0861 1322.79 46.1829 1323.16 52.6542L1323.17 52.7921Z" fill="#F9F9F9"></path><path d="M1325.94 52.7921L1325.95 52.6542C1326.31 46.1829 1329.05 40.0861 1333.64 35.4868C1338.24 30.8876 1344.34 28.1594 1350.81 27.7948L1350.94 27.7847L1350.93 27.9226C1350.57 34.3939 1347.83 40.4907 1343.24 45.0899C1338.64 49.6892 1332.55 52.4174 1326.08 52.782L1325.94 52.7921Z" fill="#F9F9F9"></path><path d="M1298.16 25.0172L1298.17 24.8793C1298.54 18.408 1301.28 12.3112 1305.86 7.71192C1310.46 3.11266 1316.56 0.384452 1323.03 0.019893L1323.17 0.00976562L1323.16 0.147654C1322.79 6.61897 1320.06 12.7158 1315.47 17.315C1310.87 21.9143 1304.77 24.6425 1298.3 25.0071L1298.16 25.0172Z" fill="#F9F9F9"></path><path d="M1350.94 25.0178L1350.81 25.0076C1344.33 24.6431 1338.24 21.9047 1333.64 17.3156C1329.04 12.7163 1326.31 6.61955 1325.95 0.138865L1325.94 0.000976562L1326.07 0.0111041C1332.54 0.374905 1338.64 3.11324 1343.24 7.71251C1347.84 12.3118 1350.57 18.4086 1350.93 24.8799L1350.94 25.0178Z" fill="#F9F9F9"></path><path d="M1378.72 52.7921L1378.58 52.782C1372.11 52.4174 1366.01 49.679 1361.41 45.0899C1356.81 40.4907 1354.09 34.3939 1353.72 27.9226L1353.71 27.7847L1353.85 27.7948C1360.32 28.1594 1366.42 30.8977 1371.02 35.4868C1375.62 40.0861 1378.34 46.1829 1378.71 52.6542L1378.72 52.7921Z" fill="#F9F9F9"></path><path d="M1381.49 52.7921L1381.5 52.6542C1381.86 46.1829 1384.6 40.0861 1389.19 35.4868C1393.79 30.8876 1399.89 28.1594 1406.36 27.7948L1406.49 27.7847L1406.48 27.9226C1406.12 34.3939 1403.38 40.4907 1398.79 45.0899C1394.19 49.6892 1388.1 52.4174 1381.63 52.782L1381.49 52.7921Z" fill="#F9F9F9"></path><path d="M1353.71 25.0176L1353.72 24.8797C1354.09 18.4084 1356.83 12.3116 1361.42 7.71233C1366.02 3.11307 1372.11 0.374686 1378.58 0.0101273L1378.72 0L1378.71 0.137888C1378.35 6.60921 1375.61 12.706 1371.02 17.3053C1366.42 21.9045 1360.32 24.6327 1353.85 24.9973L1353.71 25.0176Z" fill="#F9F9F9"></path><path d="M1406.5 25.0177L1406.37 25.0076C1399.89 24.643 1393.8 21.9047 1389.2 17.3156C1384.6 12.7163 1381.87 6.61953 1381.51 0.148212L1381.49 0.000976562L1381.63 0.0111041C1388.1 0.374905 1394.19 3.11324 1398.79 7.71251C1403.39 12.3118 1406.12 18.4086 1406.48 24.8799L1406.5 25.0177Z" fill="#F9F9F9"></path><path d="M1323.17 108.343L1323.03 108.333C1316.56 107.969 1310.46 105.23 1305.86 100.641C1301.27 96.0419 1298.54 89.9451 1298.17 83.4738L1298.16 83.3359L1298.3 83.3461C1304.77 83.7106 1310.87 86.449 1315.47 91.0381C1320.07 95.6374 1322.79 101.734 1323.16 108.205L1323.17 108.343Z" fill="#F9F9F9"></path><path d="M1325.94 108.343L1325.95 108.205C1326.31 101.734 1329.05 95.6374 1333.64 91.0381C1338.24 86.4388 1344.34 83.7106 1350.81 83.3461L1350.94 83.3359L1350.93 83.4738C1350.57 89.9451 1347.83 96.0419 1343.24 100.641C1338.64 105.24 1332.55 107.979 1326.08 108.343L1325.94 108.343Z" fill="#F9F9F9"></path><path d="M1298.16 80.567L1298.17 80.4291C1298.54 73.9578 1301.28 67.861 1305.86 63.2617C1310.46 58.6625 1316.56 55.9343 1323.03 55.5697L1323.17 55.5596L1323.16 55.6975C1322.79 62.1688 1320.06 68.2656 1315.47 72.8648C1310.87 77.4641 1304.77 80.1923 1298.3 80.5569L1298.16 80.567Z" fill="#F9F9F9"></path><path d="M1350.94 80.567L1350.81 80.5569C1344.33 80.1923 1338.24 77.4539 1333.64 72.8648C1329.04 68.2656 1326.31 62.1688 1325.95 55.6975L1325.94 55.5596L1326.07 55.5697C1332.55 55.9343 1338.64 58.6726 1343.24 63.2617C1347.84 67.861 1350.57 73.9578 1350.93 80.4291L1350.94 80.567Z" fill="#F9F9F9"></path><path d="M1378.72 108.343L1378.58 108.333C1372.11 107.969 1366.01 105.23 1361.41 100.641C1356.81 96.0419 1354.09 89.9451 1353.72 83.4738L1353.71 83.3359L1353.85 83.3461C1360.32 83.7106 1366.42 86.449 1371.02 91.0381C1375.62 95.6374 1378.34 101.734 1378.71 108.205L1378.72 108.343Z" fill="#F9F9F9"></path><path d="M1381.49 108.343L1381.5 108.205C1381.86 101.734 1384.6 95.6374 1389.19 91.0381C1393.79 86.4388 1399.89 83.7106 1406.36 83.3461L1406.49 83.3359L1406.48 83.4738C1406.12 89.9451 1403.38 96.0419 1398.79 100.641C1394.19 105.24 1388.1 107.969 1381.63 108.333L1381.49 108.343Z" fill="#F9F9F9"></path><path d="M1353.71 80.567L1353.72 80.4291C1354.09 73.9578 1356.83 67.861 1361.42 63.2617C1366.01 58.6625 1372.11 55.9343 1378.58 55.5697L1378.72 55.5596L1378.71 55.6975C1378.35 62.1688 1375.61 68.2656 1371.02 72.8648C1366.42 77.4641 1360.32 80.1923 1353.85 80.5569L1353.71 80.567Z" fill="#F9F9F9"></path><path d="M1406.5 80.567L1406.37 80.5569C1399.89 80.1923 1393.8 77.4539 1389.2 72.8648C1384.6 68.2656 1381.87 62.1688 1381.51 55.6975L1381.5 55.5596L1381.63 55.5697C1388.11 55.9343 1394.2 58.6726 1398.8 63.2617C1403.4 67.861 1406.13 73.9578 1406.49 80.4291L1406.5 80.567Z" fill="#F9F9F9"></path><path d="M998.672 52.7921L998.535 52.782C992.063 52.4174 985.966 49.679 981.367 45.0899C976.768 40.4907 974.04 34.3939 973.675 27.9226L973.665 27.7847L973.803 27.7948C980.274 28.1594 986.371 30.8977 990.97 35.4868C995.57 40.0861 998.298 46.1829 998.662 52.6542L998.672 52.7921Z" fill="#F9F9F9"></path><path d="M1001.44 52.7921L1001.45 52.6542C1001.82 46.1829 1004.55 40.0861 1009.14 35.4868C1013.74 30.8876 1019.84 28.1594 1026.31 27.7948L1026.45 27.7847L1026.44 27.9226C1026.07 34.3939 1023.33 40.4907 1018.75 45.0899C1014.15 49.6892 1008.05 52.4174 1001.58 52.782L1001.44 52.7921Z" fill="#F9F9F9"></path><path d="M973.665 25.0172L973.675 24.8793C974.04 18.408 976.778 12.3112 981.367 7.71192C985.966 3.11266 992.063 0.384452 998.535 0.019893L998.672 0.00976562L998.662 0.147654C998.298 6.61897 995.559 12.7158 990.97 17.315C986.371 21.9143 980.274 24.6425 973.803 25.0071L973.665 25.0172Z" fill="#F9F9F9"></path><path d="M1026.45 25.0178L1026.31 25.0076C1019.84 24.6431 1013.74 21.9047 1009.14 17.3156C1004.54 12.7163 1001.81 6.61955 1001.45 0.138865L1001.44 0.000976562L1001.58 0.0111041C1008.05 0.374905 1014.14 3.11324 1018.74 7.71251C1023.34 12.3118 1026.07 18.4086 1026.44 24.8799L1026.45 25.0178Z" fill="#F9F9F9"></path><path d="M1054.22 52.7921L1054.08 52.782C1047.61 52.4174 1041.52 49.679 1036.92 45.0899C1032.32 40.4907 1029.59 34.3939 1029.22 27.9226L1029.21 27.7847L1029.35 27.7948C1035.82 28.1594 1041.92 30.8977 1046.52 35.4868C1051.12 40.0861 1053.85 46.1829 1054.21 52.6542L1054.22 52.7921Z" fill="#F9F9F9"></path><path d="M1056.99 52.7921L1057 52.6542C1057.36 46.1829 1060.1 40.0861 1064.69 35.4868C1069.29 30.8876 1075.39 28.1594 1081.86 27.7948L1082 27.7847L1081.99 27.9226C1081.62 34.3939 1078.88 40.4907 1074.3 45.0899C1069.7 49.6892 1063.6 52.4174 1057.13 52.782L1056.99 52.7921Z" fill="#F9F9F9"></path><path d="M1029.22 25.0176L1029.23 24.8797C1029.59 18.4084 1032.33 12.3116 1036.92 7.71233C1041.52 3.11307 1047.61 0.374686 1054.09 0.0101273L1054.22 0L1054.21 0.137888C1053.85 6.60921 1051.11 12.706 1046.52 17.3053C1041.92 21.9045 1035.83 24.6327 1029.35 24.9973L1029.22 25.0176Z" fill="#F9F9F9"></path><path d="M1082.01 25.0177L1081.87 25.0076C1075.4 24.643 1069.3 21.9047 1064.7 17.3156C1060.1 12.7163 1057.37 6.61953 1057.01 0.148212L1056.99 0.000976562L1057.13 0.0111041C1063.6 0.374905 1069.7 3.11324 1074.3 7.71251C1078.89 12.3118 1081.62 18.4086 1081.99 24.8799L1082.01 25.0177Z" fill="#F9F9F9"></path><path d="M998.672 108.343L998.535 108.333C992.063 107.969 985.966 105.23 981.367 100.641C976.768 96.0419 974.04 89.9451 973.675 83.4738L973.665 83.3359L973.803 83.3461C980.274 83.7106 986.371 86.449 990.97 91.0381C995.57 95.6374 998.298 101.734 998.662 108.205L998.672 108.343Z" fill="#F9F9F9"></path><path d="M1001.44 108.343L1001.45 108.205C1001.82 101.734 1004.55 95.6374 1009.14 91.0381C1013.74 86.4388 1019.84 83.7106 1026.31 83.3461L1026.45 83.3359L1026.44 83.4738C1026.07 89.9451 1023.33 96.0419 1018.75 100.641C1014.15 105.24 1008.05 107.979 1001.58 108.343L1001.44 108.343Z" fill="#F9F9F9"></path><path d="M973.665 80.567L973.675 80.4291C974.04 73.9578 976.778 67.861 981.367 63.2617C985.966 58.6625 992.063 55.9343 998.535 55.5697L998.672 55.5596L998.662 55.6975C998.298 62.1688 995.559 68.2656 990.97 72.8648C986.371 77.4641 980.274 80.1923 973.803 80.5569L973.665 80.567Z" fill="#F9F9F9"></path><path d="M1026.45 80.567L1026.31 80.5569C1019.84 80.1923 1013.74 77.4539 1009.14 72.8648C1004.54 68.2656 1001.81 62.1688 1001.45 55.6975L1001.44 55.5596L1001.58 55.5697C1008.05 55.9343 1014.15 58.6726 1018.74 63.2617C1023.34 67.861 1026.07 73.9578 1026.44 80.4291L1026.45 80.567Z" fill="#F9F9F9"></path><path d="M1054.22 108.343L1054.08 108.333C1047.61 107.969 1041.52 105.23 1036.92 100.641C1032.32 96.0419 1029.59 89.9451 1029.22 83.4738L1029.21 83.3359L1029.35 83.3461C1035.82 83.7106 1041.92 86.449 1046.52 91.0381C1051.12 95.6374 1053.85 101.734 1054.21 108.205L1054.22 108.343Z" fill="#F9F9F9"></path><path d="M1056.99 108.343L1057 108.205C1057.36 101.734 1060.1 95.6374 1064.69 91.0381C1069.29 86.4388 1075.39 83.7106 1081.86 83.3461L1082 83.3359L1081.99 83.4738C1081.62 89.9451 1078.88 96.0419 1074.3 100.641C1069.7 105.24 1063.6 107.969 1057.13 108.333L1056.99 108.343Z" fill="#F9F9F9"></path><path d="M1029.22 80.567L1029.23 80.4291C1029.59 73.9578 1032.33 67.861 1036.92 63.2617C1041.52 58.6625 1047.61 55.9343 1054.09 55.5697L1054.22 55.5596L1054.21 55.6975C1053.85 62.1688 1051.11 68.2656 1046.52 72.8648C1041.92 77.4641 1035.83 80.1923 1029.35 80.5569L1029.22 80.567Z" fill="#F9F9F9"></path><path d="M1082.01 80.567L1081.87 80.5569C1075.4 80.1923 1069.3 77.4539 1064.7 72.8648C1060.1 68.2656 1057.37 62.1688 1057.01 55.6975L1057 55.5596L1057.14 55.5697C1063.61 55.9343 1069.71 58.6726 1074.3 63.2617C1078.9 67.861 1081.63 73.9578 1082 80.4291L1082.01 80.567Z" fill="#F9F9F9"></path><path d="M1431.33 52.7921L1431.2 52.782C1424.73 52.4174 1418.63 49.679 1414.03 45.0899C1409.43 40.4907 1406.7 34.3939 1406.34 27.9226L1406.33 27.7847L1406.47 27.7948C1412.94 28.1594 1419.03 30.8977 1423.63 35.4868C1428.23 40.0861 1430.96 46.1829 1431.32 52.6542L1431.33 52.7921Z" fill="#F9F9F9"></path><path d="M1434.1 52.7921L1434.11 52.6542C1434.48 46.1829 1437.22 40.0861 1441.8 35.4868C1446.4 30.8876 1452.5 28.1594 1458.97 27.7948L1459.11 27.7847L1459.1 27.9226C1458.74 34.3939 1456 40.4907 1451.41 45.0899C1446.81 49.6892 1440.71 52.4174 1434.24 52.782L1434.1 52.7921Z" fill="#F9F9F9"></path><path d="M1406.33 25.0172L1406.34 24.8793C1406.7 18.408 1409.44 12.3112 1414.03 7.71192C1418.63 3.11266 1424.73 0.384452 1431.2 0.019893L1431.33 0.00976562L1431.32 0.147654C1430.96 6.61897 1428.22 12.7158 1423.63 17.315C1419.03 21.9143 1412.94 24.6425 1406.47 25.0071L1406.33 25.0172Z" fill="#F9F9F9"></path><path d="M1459.11 25.0178L1458.97 25.0076C1452.5 24.6431 1446.4 21.9047 1441.8 17.3156C1437.2 12.7163 1434.48 6.61955 1434.11 0.138865L1434.1 0.000976562L1434.24 0.0111041C1440.71 0.374905 1446.81 3.11324 1451.41 7.71251C1456.01 12.3118 1458.73 18.4086 1459.1 24.8799L1459.11 25.0178Z" fill="#F9F9F9"></path><path d="M1486.88 52.7921L1486.75 52.782C1480.28 52.4174 1474.18 49.679 1469.58 45.0899C1464.98 40.4907 1462.25 34.3939 1461.89 27.9226L1461.88 27.7847L1462.01 27.7948C1468.49 28.1594 1474.58 30.8977 1479.18 35.4868C1483.78 40.0861 1486.51 46.1829 1486.87 52.6542L1486.88 52.7921Z" fill="#F9F9F9"></path><path d="M1489.65 52.7921L1489.66 52.6542C1490.03 46.1829 1492.77 40.0861 1497.35 35.4868C1501.95 30.8876 1508.05 28.1594 1514.52 27.7948L1514.66 27.7847L1514.65 27.9226C1514.29 34.3939 1511.55 40.4907 1506.96 45.0899C1502.36 49.6892 1496.26 52.4174 1489.79 52.782L1489.65 52.7921Z" fill="#F9F9F9"></path><path d="M1461.88 25.0176L1461.89 24.8797C1462.25 18.4084 1464.99 12.3116 1469.58 7.71233C1474.18 3.11307 1480.28 0.374686 1486.75 0.0101273L1486.89 0L1486.88 0.137888C1486.51 6.60921 1483.77 12.706 1479.18 17.3053C1474.58 21.9045 1468.49 24.6327 1462.02 24.9973L1461.88 25.0176Z" fill="#F9F9F9"></path><path d="M1514.67 25.0177L1514.53 25.0076C1508.06 24.643 1501.96 21.9047 1497.36 17.3156C1492.76 12.7163 1490.04 6.61953 1489.67 0.148212L1489.65 0.000976562L1489.79 0.0111041C1496.26 0.374905 1502.36 3.11324 1506.96 7.71251C1511.56 12.3118 1514.29 18.4086 1514.65 24.8799L1514.67 25.0177Z" fill="#F9F9F9"></path><path d="M1431.33 108.343L1431.2 108.333C1424.73 107.969 1418.63 105.23 1414.03 100.641C1409.43 96.0419 1406.7 89.9451 1406.34 83.4738L1406.33 83.3359L1406.47 83.3461C1412.94 83.7106 1419.03 86.449 1423.63 91.0381C1428.23 95.6374 1430.96 101.734 1431.32 108.205L1431.33 108.343Z" fill="#F9F9F9"></path><path d="M1434.1 108.343L1434.11 108.205C1434.48 101.734 1437.22 95.6374 1441.8 91.0381C1446.4 86.4388 1452.5 83.7106 1458.97 83.3461L1459.11 83.3359L1459.1 83.4738C1458.74 89.9451 1456 96.0419 1451.41 100.641C1446.81 105.24 1440.71 107.979 1434.24 108.343L1434.1 108.343Z" fill="#F9F9F9"></path><path d="M1406.33 80.567L1406.34 80.4291C1406.7 73.9578 1409.44 67.861 1414.03 63.2617C1418.63 58.6625 1424.73 55.9343 1431.2 55.5697L1431.33 55.5596L1431.32 55.6975C1430.96 62.1688 1428.22 68.2656 1423.63 72.8648C1419.03 77.4641 1412.94 80.1923 1406.47 80.5569L1406.33 80.567Z" fill="#F9F9F9"></path><path d="M1459.11 80.567L1458.97 80.5569C1452.5 80.1923 1446.4 77.4539 1441.8 72.8648C1437.2 68.2656 1434.48 62.1688 1434.11 55.6975L1434.1 55.5596L1434.24 55.5697C1440.71 55.9343 1446.81 58.6726 1451.41 63.2617C1456.01 67.861 1458.73 73.9578 1459.1 80.4291L1459.11 80.567Z" fill="#F9F9F9"></path><path d="M1486.88 108.343L1486.75 108.333C1480.28 107.969 1474.18 105.23 1469.58 100.641C1464.98 96.0419 1462.25 89.9451 1461.89 83.4738L1461.88 83.3359L1462.01 83.3461C1468.49 83.7106 1474.58 86.449 1479.18 91.0381C1483.78 95.6374 1486.51 101.734 1486.87 108.205L1486.88 108.343Z" fill="#F9F9F9"></path><path d="M1489.65 108.343L1489.66 108.205C1490.03 101.734 1492.77 95.6374 1497.35 91.0381C1501.95 86.4388 1508.05 83.7106 1514.52 83.3461L1514.66 83.3359L1514.65 83.4738C1514.29 89.9451 1511.55 96.0419 1506.96 100.641C1502.36 105.24 1496.26 107.969 1489.79 108.333L1489.65 108.343Z" fill="#F9F9F9"></path><path d="M1461.88 80.567L1461.89 80.4291C1462.25 73.9578 1464.99 67.861 1469.58 63.2617C1474.18 58.6625 1480.28 55.9343 1486.75 55.5697L1486.89 55.5596L1486.88 55.6975C1486.51 62.1688 1483.77 68.2656 1479.18 72.8648C1474.58 77.4641 1468.49 80.1923 1462.02 80.5569L1461.88 80.567Z" fill="#F9F9F9"></path><path d="M1514.67 80.567L1514.53 80.5569C1508.06 80.1923 1501.96 77.4539 1497.36 72.8648C1492.76 68.2656 1490.04 62.1688 1489.67 55.6975L1489.66 55.5596L1489.8 55.5697C1496.27 55.9343 1502.37 58.6726 1506.97 63.2617C1511.57 67.861 1514.29 73.9578 1514.66 80.4291L1514.67 80.567Z" fill="#F9F9F9"></path><path d="M1106.84 52.7921L1106.7 52.782C1100.23 52.4174 1094.13 49.679 1089.53 45.0899C1084.93 40.4907 1082.21 34.3939 1081.84 27.9226L1081.83 27.7847L1081.97 27.7948C1088.44 28.1594 1094.54 30.8977 1099.14 35.4868C1103.74 40.0861 1106.46 46.1829 1106.83 52.6542L1106.84 52.7921Z" fill="#F9F9F9"></path><path d="M1109.61 52.7921L1109.62 52.6542C1109.98 46.1829 1112.72 40.0861 1117.31 35.4868C1121.91 30.8876 1128 28.1594 1134.48 27.7948L1134.61 27.7847L1134.6 27.9226C1134.24 34.3939 1131.5 40.4907 1126.91 45.0899C1122.31 49.6892 1116.21 52.4174 1109.74 52.782L1109.61 52.7921Z" fill="#F9F9F9"></path><path d="M1081.83 25.0172L1081.84 24.8793C1082.21 18.408 1084.94 12.3112 1089.53 7.71192C1094.13 3.11266 1100.23 0.384452 1106.7 0.019893L1106.84 0.00976562L1106.83 0.147654C1106.46 6.61897 1103.73 12.7158 1099.14 17.315C1094.54 21.9143 1088.44 24.6425 1081.97 25.0071L1081.83 25.0172Z" fill="#F9F9F9"></path><path d="M1134.61 25.0178L1134.48 25.0076C1128 24.6431 1121.91 21.9047 1117.31 17.3156C1112.71 12.7163 1109.98 6.61955 1109.61 0.138865L1109.61 0.000976562L1109.74 0.0111041C1116.21 0.374905 1122.31 3.11324 1126.91 7.71251C1131.51 12.3118 1134.24 18.4086 1134.6 24.8799L1134.61 25.0178Z" fill="#F9F9F9"></path><path d="M1162.39 52.7921L1162.25 52.782C1155.78 52.4174 1149.68 49.679 1145.08 45.0899C1140.48 40.4907 1137.76 34.3939 1137.39 27.9226L1137.38 27.7847L1137.52 27.7948C1143.99 28.1594 1150.09 30.8977 1154.69 35.4868C1159.29 40.0861 1162.01 46.1829 1162.38 52.6542L1162.39 52.7921Z" fill="#F9F9F9"></path><path d="M1165.16 52.7921L1165.17 52.6542C1165.53 46.1829 1168.27 40.0861 1172.86 35.4868C1177.46 30.8876 1183.55 28.1594 1190.03 27.7948L1190.16 27.7847L1190.15 27.9226C1189.79 34.3939 1187.05 40.4907 1182.46 45.0899C1177.86 49.6892 1171.77 52.4174 1165.29 52.782L1165.16 52.7921Z" fill="#F9F9F9"></path><path d="M1137.38 25.0176L1137.39 24.8797C1137.76 18.4084 1140.49 12.3116 1145.08 7.71233C1149.68 3.11307 1155.78 0.374686 1162.25 0.0101273L1162.39 0L1162.38 0.137888C1162.01 6.60921 1159.28 12.706 1154.69 17.3053C1150.09 21.9045 1143.99 24.6327 1137.52 24.9973L1137.38 25.0176Z" fill="#F9F9F9"></path><path d="M1190.17 25.0177L1190.04 25.0076C1183.56 24.643 1177.47 21.9047 1172.87 17.3156C1168.27 12.7163 1165.54 6.61953 1165.18 0.148212L1165.16 0.000976562L1165.29 0.0111041C1171.76 0.374905 1177.86 3.11324 1182.46 7.71251C1187.06 12.3118 1189.79 18.4086 1190.15 24.8799L1190.17 25.0177Z" fill="#F9F9F9"></path><path d="M1106.84 108.343L1106.7 108.333C1100.23 107.969 1094.13 105.23 1089.53 100.641C1084.93 96.0419 1082.21 89.9451 1081.84 83.4738L1081.83 83.3359L1081.97 83.3461C1088.44 83.7106 1094.54 86.449 1099.14 91.0381C1103.74 95.6374 1106.46 101.734 1106.83 108.205L1106.84 108.343Z" fill="#F9F9F9"></path><path d="M1109.61 108.343L1109.62 108.205C1109.98 101.734 1112.72 95.6374 1117.31 91.0381C1121.91 86.4388 1128 83.7106 1134.48 83.3461L1134.61 83.3359L1134.6 83.4738C1134.24 89.9451 1131.5 96.0419 1126.91 100.641C1122.31 105.24 1116.21 107.979 1109.74 108.343L1109.61 108.343Z" fill="#F9F9F9"></path><path d="M1081.83 80.567L1081.84 80.4291C1082.21 73.9578 1084.94 67.861 1089.53 63.2617C1094.13 58.6625 1100.23 55.9343 1106.7 55.5697L1106.84 55.5596L1106.83 55.6975C1106.46 62.1688 1103.73 68.2656 1099.14 72.8648C1094.54 77.4641 1088.44 80.1923 1081.97 80.5569L1081.83 80.567Z" fill="#F9F9F9"></path><path d="M1134.61 80.567L1134.47 80.5569C1128 80.1923 1121.91 77.4539 1117.31 72.8648C1112.71 68.2656 1109.98 62.1688 1109.62 55.6975L1109.61 55.5596L1109.74 55.5697C1116.21 55.9343 1122.31 58.6726 1126.91 63.2617C1131.51 67.861 1134.24 73.9578 1134.6 80.4291L1134.61 80.567Z" fill="#F9F9F9"></path><path d="M1162.39 108.343L1162.25 108.333C1155.78 107.969 1149.68 105.23 1145.08 100.641C1140.48 96.0419 1137.76 89.9451 1137.39 83.4738L1137.38 83.3359L1137.52 83.3461C1143.99 83.7106 1150.09 86.449 1154.69 91.0381C1159.29 95.6374 1162.01 101.734 1162.38 108.205L1162.39 108.343Z" fill="#F9F9F9"></path><path d="M1165.16 108.343L1165.17 108.205C1165.53 101.734 1168.27 95.6374 1172.86 91.0381C1177.46 86.4388 1183.55 83.7106 1190.03 83.3461L1190.16 83.3359L1190.15 83.4738C1189.79 89.9451 1187.05 96.0419 1182.46 100.641C1177.86 105.24 1171.77 107.969 1165.29 108.333L1165.16 108.343Z" fill="#F9F9F9"></path><path d="M1137.38 80.567L1137.39 80.4291C1137.76 73.9578 1140.49 67.861 1145.08 63.2617C1149.68 58.6625 1155.78 55.9343 1162.25 55.5697L1162.39 55.5596L1162.38 55.6975C1162.01 62.1688 1159.28 68.2656 1154.69 72.8648C1150.09 77.4641 1143.99 80.1923 1137.52 80.5569L1137.38 80.567Z" fill="#F9F9F9"></path><path d="M1190.17 80.567L1190.03 80.5569C1183.56 80.1923 1177.47 77.4539 1172.87 72.8648C1168.27 68.2656 1165.54 62.1688 1165.18 55.6975L1165.17 55.5596L1165.3 55.5697C1171.77 55.9343 1177.87 58.6726 1182.47 63.2617C1187.07 67.861 1189.8 73.9578 1190.16 80.4291L1190.17 80.567Z" fill="#F9F9F9"></path><path d="M1539.5 52.7921L1539.36 52.782C1532.89 52.4174 1526.79 49.679 1522.2 45.0899C1517.6 40.4907 1514.87 34.3939 1514.5 27.9226L1514.49 27.7847L1514.63 27.7948C1521.1 28.1594 1527.2 30.8977 1531.8 35.4868C1536.4 40.0861 1539.13 46.1829 1539.49 52.6542L1539.5 52.7921Z" fill="#F9F9F9"></path><path d="M1542.27 52.7921L1542.28 52.6542C1542.64 46.1829 1545.38 40.0861 1549.97 35.4868C1554.57 30.8876 1560.67 28.1594 1567.14 27.7948L1567.28 27.7847L1567.27 27.9226C1566.9 34.3939 1564.16 40.4907 1559.57 45.0899C1554.97 49.6892 1548.88 52.4174 1542.41 52.782L1542.27 52.7921Z" fill="#F9F9F9"></path><path d="M1514.49 25.0172L1514.5 24.8793C1514.87 18.408 1517.61 12.3112 1522.2 7.71192C1526.79 3.11266 1532.89 0.384452 1539.36 0.019893L1539.5 0.00976562L1539.49 0.147654C1539.13 6.61897 1536.39 12.7158 1531.8 17.315C1527.2 21.9143 1521.1 24.6425 1514.63 25.0071L1514.49 25.0172Z" fill="#F9F9F9"></path><path d="M1567.28 25.0178L1567.14 25.0076C1560.67 24.6431 1554.57 21.9047 1549.97 17.3156C1545.37 12.7163 1542.64 6.61955 1542.28 0.138865L1542.27 0.000976562L1542.41 0.0111041C1548.88 0.374905 1554.97 3.11324 1559.57 7.71251C1564.17 12.3118 1566.9 18.4086 1567.26 24.8799L1567.28 25.0178Z" fill="#F9F9F9"></path><path d="M1595.05 52.7921L1594.91 52.782C1588.44 52.4174 1582.34 49.679 1577.75 45.0899C1573.15 40.4907 1570.42 34.3939 1570.05 27.9226L1570.04 27.7847L1570.18 27.7948C1576.65 28.1594 1582.75 30.8977 1587.35 35.4868C1591.95 40.0861 1594.68 46.1829 1595.04 52.6542L1595.05 52.7921Z" fill="#F9F9F9"></path><path d="M1597.82 52.7921L1597.83 52.6542C1598.19 46.1829 1600.93 40.0861 1605.52 35.4868C1610.12 30.8876 1616.22 28.1594 1622.69 27.7948L1622.83 27.7847L1622.82 27.9226C1622.45 34.3939 1619.71 40.4907 1615.12 45.0899C1610.52 49.6892 1604.43 52.4174 1597.96 52.782L1597.82 52.7921Z" fill="#F9F9F9"></path><path d="M1570.04 25.0176L1570.05 24.8797C1570.42 18.4084 1573.16 12.3116 1577.75 7.71233C1582.35 3.11307 1588.44 0.374686 1594.91 0.0101273L1595.05 0L1595.04 0.137888C1594.68 6.60921 1591.94 12.706 1587.35 17.3053C1582.75 21.9045 1576.65 24.6327 1570.18 24.9973L1570.04 25.0176Z" fill="#F9F9F9"></path><path d="M1622.84 25.0177L1622.7 25.0076C1616.23 24.643 1610.13 21.9047 1605.53 17.3156C1600.93 12.7163 1598.2 6.61953 1597.84 0.148212L1597.82 0.000976562L1597.96 0.0111041C1604.43 0.374905 1610.52 3.11324 1615.12 7.71251C1619.72 12.3118 1622.45 18.4086 1622.82 24.8799L1622.84 25.0177Z" fill="#F9F9F9"></path><path d="M1539.5 108.343L1539.36 108.333C1532.89 107.969 1526.79 105.23 1522.2 100.641C1517.6 96.0419 1514.87 89.9451 1514.5 83.4738L1514.49 83.3359L1514.63 83.3461C1521.1 83.7106 1527.2 86.449 1531.8 91.0381C1536.4 95.6374 1539.13 101.734 1539.49 108.205L1539.5 108.343Z" fill="#F9F9F9"></path><path d="M1542.27 108.343L1542.28 108.205C1542.64 101.734 1545.38 95.6374 1549.97 91.0381C1554.57 86.4388 1560.67 83.7106 1567.14 83.3461L1567.28 83.3359L1567.27 83.4738C1566.9 89.9451 1564.16 96.0419 1559.57 100.641C1554.97 105.24 1548.88 107.979 1542.41 108.343L1542.27 108.343Z" fill="#F9F9F9"></path><path d="M1514.49 80.567L1514.5 80.4291C1514.87 73.9578 1517.61 67.861 1522.2 63.2617C1526.79 58.6625 1532.89 55.9343 1539.36 55.5697L1539.5 55.5596L1539.49 55.6975C1539.13 62.1688 1536.39 68.2656 1531.8 72.8648C1527.2 77.4641 1521.1 80.1923 1514.63 80.5569L1514.49 80.567Z" fill="#F9F9F9"></path><path d="M1567.27 80.567L1567.14 80.5569C1560.67 80.1923 1554.57 77.4539 1549.97 72.8648C1545.37 68.2656 1542.64 62.1688 1542.28 55.6975L1542.27 55.5596L1542.41 55.5697C1548.88 55.9343 1554.97 58.6726 1559.57 63.2617C1564.17 67.861 1566.9 73.9578 1567.26 80.4291L1567.27 80.567Z" fill="#F9F9F9"></path><path d="M1595.05 108.343L1594.91 108.333C1588.44 107.969 1582.34 105.23 1577.75 100.641C1573.15 96.0419 1570.42 89.9451 1570.05 83.4738L1570.04 83.3359L1570.18 83.3461C1576.65 83.7106 1582.75 86.449 1587.35 91.0381C1591.95 95.6374 1594.68 101.734 1595.04 108.205L1595.05 108.343Z" fill="#F9F9F9"></path><path d="M1597.82 108.343L1597.83 108.205C1598.19 101.734 1600.93 95.6374 1605.52 91.0381C1610.12 86.4388 1616.22 83.7106 1622.69 83.3461L1622.83 83.3359L1622.82 83.4738C1622.45 89.9451 1619.71 96.0419 1615.12 100.641C1610.52 105.24 1604.43 107.969 1597.96 108.333L1597.82 108.343Z" fill="#F9F9F9"></path><path d="M1570.04 80.567L1570.05 80.4291C1570.42 73.9578 1573.16 67.861 1577.75 63.2617C1582.35 58.6625 1588.44 55.9343 1594.91 55.5697L1595.05 55.5596L1595.04 55.6975C1594.68 62.1688 1591.94 68.2656 1587.35 72.8648C1582.75 77.4641 1576.65 80.1923 1570.18 80.5569L1570.04 80.567Z" fill="#F9F9F9"></path><path d="M1622.83 80.567L1622.7 80.5569C1616.23 80.1923 1610.13 77.4539 1605.53 72.8648C1600.93 68.2656 1598.2 62.1688 1597.84 55.6975L1597.83 55.5596L1597.97 55.5697C1604.44 55.9343 1610.53 58.6726 1615.13 63.2617C1619.73 67.861 1622.46 73.9578 1622.82 80.4291L1622.83 80.567Z" fill="#F9F9F9"></path><path d="M1215 52.7921L1214.87 52.782C1208.39 52.4174 1202.3 49.679 1197.7 45.0899C1193.1 40.4907 1190.37 34.3939 1190.01 27.9226L1190 27.7847L1190.13 27.7948C1196.61 28.1594 1202.7 30.8977 1207.3 35.4868C1211.9 40.0861 1214.63 46.1829 1214.99 52.6542L1215 52.7921Z" fill="#F9F9F9"></path><path d="M1217.77 52.7921L1217.78 52.6542C1218.15 46.1829 1220.88 40.0861 1225.47 35.4868C1230.07 30.8876 1236.17 28.1594 1242.64 27.7948L1242.78 27.7847L1242.77 27.9226C1242.4 34.3939 1239.67 40.4907 1235.08 45.0899C1230.48 49.6892 1224.38 52.4174 1217.91 52.782L1217.77 52.7921Z" fill="#F9F9F9"></path><path d="M1190 25.0172L1190.01 24.8793C1190.37 18.408 1193.11 12.3112 1197.7 7.71192C1202.3 3.11266 1208.39 0.384452 1214.87 0.019893L1215 0.00976562L1214.99 0.147654C1214.63 6.61897 1211.89 12.7158 1207.3 17.315C1202.7 21.9143 1196.61 24.6425 1190.13 25.0071L1190 25.0172Z" fill="#F9F9F9"></path><path d="M1242.78 25.0178L1242.64 25.0076C1236.17 24.6431 1230.07 21.9047 1225.47 17.3156C1220.87 12.7163 1218.14 6.61955 1217.78 0.138865L1217.77 0.000976562L1217.91 0.0111041C1224.38 0.374905 1230.48 3.11324 1235.08 7.71251C1239.68 12.3118 1242.4 18.4086 1242.77 24.8799L1242.78 25.0178Z" fill="#F9F9F9"></path><path d="M1270.55 52.7921L1270.42 52.782C1263.94 52.4174 1257.85 49.679 1253.25 45.0899C1248.65 40.4907 1245.92 34.3939 1245.56 27.9226L1245.55 27.7847L1245.68 27.7948C1252.16 28.1594 1258.25 30.8977 1262.85 35.4868C1267.45 40.0861 1270.18 46.1829 1270.54 52.6542L1270.55 52.7921Z" fill="#F9F9F9"></path><path d="M1273.32 52.7921L1273.33 52.6542C1273.7 46.1829 1276.43 40.0861 1281.02 35.4868C1285.62 30.8876 1291.72 28.1594 1298.19 27.7948L1298.33 27.7847L1298.32 27.9226C1297.95 34.3939 1295.22 40.4907 1290.63 45.0899C1286.03 49.6892 1279.93 52.4174 1273.46 52.782L1273.32 52.7921Z" fill="#F9F9F9"></path><path d="M1245.55 25.0176L1245.56 24.8797C1245.92 18.4084 1248.66 12.3116 1253.25 7.71233C1257.85 3.11307 1263.95 0.374686 1270.42 0.0101273L1270.55 0L1270.54 0.137888C1270.18 6.60921 1267.44 12.706 1262.85 17.3053C1258.25 21.9045 1252.16 24.6327 1245.68 24.9973L1245.55 25.0176Z" fill="#F9F9F9"></path><path d="M1298.34 25.0177L1298.2 25.0076C1291.73 24.643 1285.63 21.9047 1281.03 17.3156C1276.43 12.7163 1273.71 6.61953 1273.34 0.148212L1273.32 0.000976562L1273.46 0.0111041C1279.93 0.374905 1286.03 3.11324 1290.63 7.71251C1295.23 12.3118 1297.95 18.4086 1298.32 24.8799L1298.34 25.0177Z" fill="#F9F9F9"></path><path d="M1215 108.343L1214.87 108.333C1208.39 107.969 1202.3 105.23 1197.7 100.641C1193.1 96.0419 1190.37 89.9451 1190.01 83.4738L1190 83.3359L1190.13 83.3461C1196.61 83.7106 1202.7 86.449 1207.3 91.0381C1211.9 95.6374 1214.63 101.734 1214.99 108.205L1215 108.343Z" fill="#F9F9F9"></path><path d="M1217.77 108.343L1217.78 108.205C1218.15 101.734 1220.88 95.6374 1225.47 91.0381C1230.07 86.4388 1236.17 83.7106 1242.64 83.3461L1242.78 83.3359L1242.77 83.4738C1242.4 89.9451 1239.67 96.0419 1235.08 100.641C1230.48 105.24 1224.38 107.979 1217.91 108.343L1217.77 108.343Z" fill="#F9F9F9"></path><path d="M1190 80.567L1190.01 80.4291C1190.37 73.9578 1193.11 67.861 1197.7 63.2617C1202.3 58.6625 1208.39 55.9343 1214.87 55.5697L1215 55.5596L1214.99 55.6975C1214.63 62.1688 1211.89 68.2656 1207.3 72.8648C1202.7 77.4641 1196.61 80.1923 1190.13 80.5569L1190 80.567Z" fill="#F9F9F9"></path><path d="M1242.78 80.567L1242.64 80.5569C1236.17 80.1923 1230.07 77.4539 1225.47 72.8648C1220.87 68.2656 1218.15 62.1688 1217.78 55.6975L1217.77 55.5596L1217.91 55.5697C1224.38 55.9343 1230.48 58.6726 1235.08 63.2617C1239.68 67.861 1242.4 73.9578 1242.77 80.4291L1242.78 80.567Z" fill="#F9F9F9"></path><path d="M1270.55 108.343L1270.42 108.333C1263.94 107.969 1257.85 105.23 1253.25 100.641C1248.65 96.0419 1245.92 89.9451 1245.56 83.4738L1245.55 83.3359L1245.68 83.3461C1252.16 83.7106 1258.25 86.449 1262.85 91.0381C1267.45 95.6374 1270.18 101.734 1270.54 108.205L1270.55 108.343Z" fill="#F9F9F9"></path><path d="M1273.32 108.343L1273.33 108.205C1273.7 101.734 1276.43 95.6374 1281.02 91.0381C1285.62 86.4388 1291.72 83.7106 1298.19 83.3461L1298.33 83.3359L1298.32 83.4738C1297.95 89.9451 1295.22 96.0419 1290.63 100.641C1286.03 105.24 1279.93 107.969 1273.46 108.333L1273.32 108.343Z" fill="#F9F9F9"></path><path d="M1245.55 80.567L1245.56 80.4291C1245.92 73.9578 1248.66 67.861 1253.25 63.2617C1257.85 58.6625 1263.95 55.9343 1270.42 55.5697L1270.55 55.5596L1270.54 55.6975C1270.18 62.1688 1267.44 68.2656 1262.85 72.8648C1258.25 77.4641 1252.16 80.1923 1245.68 80.5569L1245.55 80.567Z" fill="#F9F9F9"></path><path d="M1298.34 80.567L1298.2 80.5569C1291.73 80.1923 1285.63 77.4539 1281.03 72.8648C1276.43 68.2656 1273.7 62.1688 1273.34 55.6975L1273.33 55.5596L1273.47 55.5697C1279.94 55.9343 1286.04 58.6726 1290.64 63.2617C1295.23 67.861 1297.96 73.9578 1298.33 80.4291L1298.34 80.567Z" fill="#F9F9F9"></path><path d="M1647.67 52.7921L1647.53 52.782C1641.06 52.4174 1634.96 49.679 1630.36 45.0899C1625.76 40.4907 1623.03 34.3939 1622.67 27.9226L1622.66 27.7847L1622.8 27.7948C1629.27 28.1594 1635.36 30.8977 1639.96 35.4868C1644.56 40.0861 1647.29 46.1829 1647.66 52.6542L1647.67 52.7921Z" fill="#F9F9F9"></path><path d="M1650.43 52.7921L1650.44 52.6542C1650.81 46.1829 1653.55 40.0861 1658.14 35.4868C1662.74 30.8876 1668.83 28.1594 1675.3 27.7948L1675.44 27.7847L1675.43 27.9226C1675.07 34.3939 1672.33 40.4907 1667.74 45.0899C1663.14 49.6892 1657.04 52.4174 1650.57 52.782L1650.43 52.7921Z" fill="#F9F9F9"></path><path d="M1622.66 25.0172L1622.67 24.8793C1623.03 18.408 1625.77 12.3112 1630.36 7.71192C1634.96 3.11266 1641.06 0.384452 1647.53 0.019893L1647.67 0.00976562L1647.66 0.147654C1647.29 6.61897 1644.55 12.7158 1639.96 17.315C1635.36 21.9143 1629.27 24.6425 1622.8 25.0071L1622.66 25.0172Z" fill="#F9F9F9"></path><path d="M1675.44 25.0178L1675.3 25.0076C1668.83 24.6431 1662.73 21.9047 1658.13 17.3156C1653.53 12.7163 1650.81 6.61955 1650.44 0.138865L1650.43 0.000976562L1650.57 0.0111041C1657.04 0.374905 1663.14 3.11324 1667.74 7.71251C1672.34 12.3118 1675.07 18.4086 1675.43 24.8799L1675.44 25.0178Z" fill="#F9F9F9"></path><path d="M1703.22 52.7921L1703.08 52.782C1696.61 52.4174 1690.51 49.679 1685.91 45.0899C1681.31 40.4907 1678.58 34.3939 1678.22 27.9226L1678.21 27.7847L1678.35 27.7948C1684.82 28.1594 1690.91 30.8977 1695.51 35.4868C1700.11 40.0861 1702.84 46.1829 1703.21 52.6542L1703.22 52.7921Z" fill="#F9F9F9"></path><path d="M1705.98 52.7921L1705.99 52.6542C1706.36 46.1829 1709.1 40.0861 1713.69 35.4868C1718.28 30.8876 1724.38 28.1594 1730.85 27.7948L1730.99 27.7847L1730.98 27.9226C1730.62 34.3939 1727.88 40.4907 1723.29 45.0899C1718.69 49.6892 1712.59 52.4174 1706.12 52.782L1705.98 52.7921Z" fill="#F9F9F9"></path><path d="M1678.21 25.0176L1678.22 24.8797C1678.58 18.4084 1681.32 12.3116 1685.91 7.71233C1690.51 3.11307 1696.61 0.374686 1703.08 0.0101273L1703.22 0L1703.21 0.137888C1702.84 6.60921 1700.1 12.706 1695.51 17.3053C1690.91 21.9045 1684.82 24.6327 1678.35 24.9973L1678.21 25.0176Z" fill="#F9F9F9"></path><path d="M1731 25.0177L1730.86 25.0076C1724.39 24.643 1718.29 21.9047 1713.69 17.3156C1709.1 12.7163 1706.37 6.61953 1706 0.148212L1705.98 0.000976562L1706.12 0.0111041C1712.59 0.374905 1718.69 3.11324 1723.29 7.71251C1727.89 12.3118 1730.62 18.4086 1730.98 24.8799L1731 25.0177Z" fill="#F9F9F9"></path><path d="M1647.67 108.343L1647.53 108.333C1641.06 107.969 1634.96 105.23 1630.36 100.641C1625.76 96.0419 1623.03 89.9451 1622.67 83.4738L1622.66 83.3359L1622.8 83.3461C1629.27 83.7106 1635.36 86.449 1639.96 91.0381C1644.56 95.6374 1647.29 101.734 1647.66 108.205L1647.67 108.343Z" fill="#F9F9F9"></path><path d="M1650.43 108.343L1650.44 108.205C1650.81 101.734 1653.55 95.6374 1658.14 91.0381C1662.74 86.4388 1668.83 83.7106 1675.3 83.3461L1675.44 83.3359L1675.43 83.4738C1675.07 89.9451 1672.33 96.0419 1667.74 100.641C1663.14 105.24 1657.04 107.979 1650.57 108.343L1650.43 108.343Z" fill="#F9F9F9"></path><path d="M1622.66 80.567L1622.67 80.4291C1623.03 73.9578 1625.77 67.861 1630.36 63.2617C1634.96 58.6625 1641.06 55.9343 1647.53 55.5697L1647.67 55.5596L1647.66 55.6975C1647.29 62.1688 1644.55 68.2656 1639.96 72.8648C1635.36 77.4641 1629.27 80.1923 1622.8 80.5569L1622.66 80.567Z" fill="#F9F9F9"></path><path d="M1675.44 80.567L1675.3 80.5569C1668.83 80.1923 1662.73 77.4539 1658.13 72.8648C1653.54 68.2656 1650.81 62.1688 1650.44 55.6975L1650.43 55.5596L1650.57 55.5697C1657.04 55.9343 1663.14 58.6726 1667.74 63.2617C1672.34 67.861 1675.07 73.9578 1675.43 80.4291L1675.44 80.567Z" fill="#F9F9F9"></path><path d="M1703.22 108.343L1703.08 108.333C1696.61 107.969 1690.51 105.23 1685.91 100.641C1681.31 96.0419 1678.58 89.9451 1678.22 83.4738L1678.21 83.3359L1678.35 83.3461C1684.82 83.7106 1690.91 86.449 1695.51 91.0381C1700.11 95.6374 1702.84 101.734 1703.21 108.205L1703.22 108.343Z" fill="#F9F9F9"></path><path d="M1705.98 108.343L1705.99 108.205C1706.36 101.734 1709.1 95.6374 1713.69 91.0381C1718.28 86.4388 1724.38 83.7106 1730.85 83.3461L1730.99 83.3359L1730.98 83.4738C1730.62 89.9451 1727.88 96.0419 1723.29 100.641C1718.69 105.24 1712.59 107.969 1706.12 108.333L1705.98 108.343Z" fill="#F9F9F9"></path><path d="M1678.21 80.567L1678.22 80.4291C1678.58 73.9578 1681.32 67.861 1685.91 63.2617C1690.51 58.6625 1696.61 55.9343 1703.08 55.5697L1703.22 55.5596L1703.21 55.6975C1702.84 62.1688 1700.1 68.2656 1695.51 72.8648C1690.91 77.4641 1684.82 80.1923 1678.35 80.5569L1678.21 80.567Z" fill="#F9F9F9"></path><path d="M1731 80.567L1730.86 80.5569C1724.39 80.1923 1718.29 77.4539 1713.69 72.8648C1709.1 68.2656 1706.37 62.1688 1706 55.6975L1705.99 55.5596L1706.13 55.5697C1712.6 55.9343 1718.7 58.6726 1723.3 63.2617C1727.9 67.861 1730.62 73.9578 1730.99 80.4291L1731 80.567Z" fill="#F9F9F9"></path></svg>