<svg width="36" height="36" viewBox="0 0 36 36" fill="none" xmlns="http://www.w3.org/2000/svg">
<rect x="0.46875" y="0.46875" width="35.0625" height="35.0625" rx="3.28125" stroke="#2E2E2E" stroke-width="0.9375"/>
<path d="M11.475 8.88672C10.9678 8.88672 10.4813 9.08821 10.1227 9.44688C9.76399 9.80554 9.5625 10.292 9.5625 10.7992C9.5625 11.3064 9.76399 11.7929 10.1227 12.1516C10.4813 12.5102 10.9678 12.7117 11.475 12.7117C11.9822 12.7117 12.4687 12.5102 12.8273 12.1516C13.186 11.7929 13.3875 11.3064 13.3875 10.7992C13.3875 10.292 13.186 9.80554 12.8273 9.44688C12.4687 9.08821 11.9822 8.88672 11.475 8.88672ZM9.675 14.2867C9.64516 14.2867 9.61655 14.2986 9.59545 14.3197C9.57435 14.3408 9.5625 14.3694 9.5625 14.3992V26.0992C9.5625 26.1613 9.6129 26.2117 9.675 26.2117H13.275C13.3048 26.2117 13.3335 26.1999 13.3545 26.1788C13.3756 26.1577 13.3875 26.1291 13.3875 26.0992V14.3992C13.3875 14.3694 13.3756 14.3408 13.3545 14.3197C13.3335 14.2986 13.3048 14.2867 13.275 14.2867H9.675ZM15.525 14.2867C15.4952 14.2867 15.4665 14.2986 15.4455 14.3197C15.4244 14.3408 15.4125 14.3694 15.4125 14.3992V26.0992C15.4125 26.1613 15.4629 26.2117 15.525 26.2117H19.125C19.1548 26.2117 19.1835 26.1999 19.2045 26.1788C19.2256 26.1577 19.2375 26.1291 19.2375 26.0992V19.7992C19.2375 19.3517 19.4153 18.9224 19.7318 18.606C20.0482 18.2895 20.4774 18.1117 20.925 18.1117C21.3726 18.1117 21.8018 18.2895 22.1182 18.606C22.4347 18.9224 22.6125 19.3517 22.6125 19.7992V26.0992C22.6125 26.1613 22.6629 26.2117 22.725 26.2117H26.325C26.3548 26.2117 26.3835 26.1999 26.4045 26.1788C26.4256 26.1577 26.4375 26.1291 26.4375 26.0992V18.3412C26.4375 16.1569 24.5385 14.4487 22.365 14.6458C21.6926 14.7075 21.0339 14.8739 20.4129 15.139L19.2375 15.643V14.3992C19.2375 14.3694 19.2256 14.3408 19.2045 14.3197C19.1835 14.2986 19.1548 14.2867 19.125 14.2867H15.525Z" fill="#2E2E2E"/>
</svg>
